<?xml version="1.0" encoding="utf-8"?>
<!-- Generator: Adobe Illustrator 22.0.1, SVG Export Plug-In . SVG Version: 6.00 Build 0)  -->
<svg version="1.1" id="OBJECTS" xmlns="http://www.w3.org/2000/svg" xmlns:xlink="http://www.w3.org/1999/xlink" x="0px" y="0px"
	 width="200px" height="170px" viewBox="0 0 200 170" style="enable-background:new 0 0 200 170;" xml:space="preserve">
<style type="text/css">
	.st0{fill:#E3EBFD;}
	.st1{fill:#ADCDF7;}
	.st2{fill:#FFFFFF;}
	.st3{fill:#91B8E2;}
	.st4{clip-path:url(#SVGID_2_);}
	.st5{fill:#E5EAF7;}
	.st6{fill:#A9CAFF;}
</style>
<g>
	<path class="st0" d="M72.8,32.6c1.8-3.9,4.1-7.7,7-11.2c22.8-27.9,67.6-25.5,93.9-3.1c29.1,25,26.4,66.9,25.9,74.1
		c-2.1,25-15,65.6-44.8,73.9c-13.9,3.8-27.1-0.5-38.6-8.5c-9.1-6.3-21.1-5.7-29.8,1.7c-3.3,2.8-6.9,5.2-11,6.9
		c-9.2,3.8-17.4,2.8-21,2.3C26.8,164.8-0.3,133.3,0,103.8C0.3,70,36.5,44,72.8,32.6z"/>
	<g>
		<path class="st1" d="M38.9,80.8l57.5-42.6c2.3-1.7,5.6-1.7,7.9,0l56.6,42.6H38.9z"/>
		<path class="st1" d="M154.6,149.1H45c-4.5,0-8.1-3.6-8.1-8.1V86.4c0-4.5,3.6-8.1,8.1-8.1h109.6c4.5,0,8.1,3.6,8.1,8.1v54.7
			C162.7,145.5,159.1,149.1,154.6,149.1z"/>
		<path class="st2" d="M157,77.3v6.5L106,113.8l-1.7-1.1c-2.7-1.7-6.1-1.6-8.8,0l-1.7,1.1L42.3,83.7v-6.5L157,77.3L157,77.3z"/>
		<path class="st3" d="M158.3,145.2l-52.3-31l-1.7-1.1c-2.7-1.7-6.1-1.6-8.8,0l-1.7,1.1l-51.4,30.9l48.7-33l4.3-3c3-2.2,7-2.2,10,0
			l3.8,2.6L158.3,145.2z"/>
		<path class="st2" d="M146.1,53.8H53.3c-6.1,0-11,4.9-11,11v10.6c0,6.1,4.9,11,11,11h92.8c6.1,0,11-4.9,11-11V64.8
			C157,58.7,152.1,53.8,146.1,53.8z"/>
		<g>
			<g>
				<defs>
					<path id="SVGID_1_" d="M157,62.4v21.3l-51.1,30l-1.7-1.1c-2.7-1.7-6.1-1.6-8.8,0l-1.7,1.1L42.3,83.7V62.4
						C42.3,62.4,157,62.4,157,62.4z"/>
				</defs>
				<clipPath id="SVGID_2_">
					<use xlink:href="#SVGID_1_"  style="overflow:visible;"/>
				</clipPath>
				<g class="st4">
					<path class="st5" d="M146.8,70.5H51c-1.1,0-2-0.9-2-2v-1.9c0-1.1,0.9-2,2-2h95.8c1.1,0,2,0.9,2,2v1.9
						C148.8,69.6,147.9,70.5,146.8,70.5z"/>
					<path class="st5" d="M146.8,88.2H51c-1.1,0-2-0.9-2-2v-1.9c0-1.1,0.9-2,2-2h95.8c1.1,0,2,0.9,2,2v1.9
						C148.8,87.3,147.9,88.2,146.8,88.2z"/>
					<path class="st5" d="M146.8,105.9H51c-1.1,0-2-0.9-2-2V102c0-1.1,0.9-2,2-2h95.8c1.1,0,2,0.9,2,2v1.9
						C148.8,105,147.9,105.9,146.8,105.9z"/>
				</g>
			</g>
		</g>
	</g>
	<circle class="st6" cx="132.7" cy="29.5" r="4.8"/>
	<circle class="st6" cx="22.8" cy="78.8" r="3"/>
	<circle class="st6" cx="61.6" cy="34" r="2"/>
	<circle class="st6" cx="73.9" cy="21.5" r="4.1"/>
	<circle class="st6" cx="177.1" cy="60.1" r="3.3"/>
</g>
</svg>
