<?xml version="1.0" encoding="utf-8"?>
<!-- Generator: Adobe Illustrator 24.0.1, SVG Export Plug-In . SVG Version: 6.00 Build 0)  -->
<svg version="1.1" id="圖層_1" xmlns="http://www.w3.org/2000/svg" xmlns:xlink="http://www.w3.org/1999/xlink" x="0px" y="0px"
	 viewBox="0 0 448 512" style="enable-background:new 0 0 448 512;" xml:space="preserve">
<style type="text/css">
	.st0{fill:#FFFFFF;}
</style>
<path class="st0" d="M246.6,41.4c-12.5-12.5-32.8-12.5-45.3,0l-160,160c-12.5,12.5-12.5,32.8,0,45.3c12.5,12.5,32.8,12.5,45.3,0
	L224,109.3l137.4,137.3c12.5,12.5,32.8,12.5,45.3,0s12.5-32.8,0-45.3L246.6,41.4L246.6,41.4z M406.6,393.4l-160-160
	c-12.5-12.5-32.8-12.5-45.3,0l-160,160c-12.5,12.5-12.5,32.8,0,45.3s32.8,12.5,45.3,0L224,301.3l137.4,137.3
	c12.5,12.5,32.8,12.5,45.3,0S419.2,405.8,406.6,393.4L406.6,393.4z"/>
</svg>
