<?xml version="1.0" encoding="utf-8"?>
<!-- Generator: Adobe Illustrator 24.0.1, SVG Export Plug-In . SVG Version: 6.00 Build 0)  -->
<svg version="1.1" id="圖層_1" xmlns="http://www.w3.org/2000/svg" xmlns:xlink="http://www.w3.org/1999/xlink" x="0px" y="0px"
	 viewBox="0 0 640 512" style="enable-background:new 0 0 640 512;" xml:space="preserve">
<style type="text/css">
	.st0{fill:#FD8B5C;}
</style>
<path class="st0" d="M48,64C21.5,64,0,85.5,0,112c0,15.1,7.1,29.3,19.2,38.4l217.6,163.2c11.4,8.5,27,8.5,38.4,0l57.4-43
	c23.9-59.8,79.7-103.3,146.3-109.8l13.9-10.4c12.1-9.1,19.2-23.3,19.2-38.4c0-26.5-21.5-48-48-48C464,64,48,64,48,64z M294.4,339.2
	c-22.8,17.1-54,17.1-76.8,0L0,176v208c0,35.3,28.7,64,64,64h296.2c-25.1-30.4-40.2-69.5-40.2-112c0-5.6,0.3-11.1,0.8-16.6
	L294.4,339.2L294.4,339.2z"/>
<path class="st0" d="M491.5,480c81.2,0,147-65.8,147-147s-65.8-147-147-147s-147,65.8-147,147S410.3,480,491.5,480z M445,286.5
	c5.4-5.4,14.1-5.4,19.5,0l27,27l27-27c5.4-5.4,14.1-5.4,19.5,0c5.3,5.4,5.4,14.1,0,19.5l-27,27l27,27c5.4,5.4,5.4,14.1,0,19.5
	c-5.4,5.3-14.1,5.4-19.5,0l-27-27l-27,27c-5.4,5.4-14.1,5.4-19.5,0c-5.3-5.4-5.4-14.1,0-19.5l27-27l-27-27
	C439.6,300.6,439.6,291.8,445,286.5z"/>
</svg>
