<?xml version="1.0" encoding="utf-8"?>
<!-- Generator: Adobe Illustrator 23.0.1, SVG Export Plug-In . SVG Version: 6.00 Build 0)  -->
<svg version="1.1" id="Layer_1" xmlns="http://www.w3.org/2000/svg" xmlns:xlink="http://www.w3.org/1999/xlink" x="0px" y="0px"
	 viewBox="0 0 512 512" style="enable-background:new 0 0 512 512;" xml:space="preserve">
<style type="text/css">
	.st0{fill:url(#SVGID_1_);}
	.st1{fill:#FFFFFF;}
</style>
<linearGradient id="SVGID_1_" gradientUnits="userSpaceOnUse" x1="146.46249" y1="-341.53748" x2="853.53748" y2="365.53751" gradientTransform="matrix(0.512 0 0 -0.512 0 262.14401)">
	<stop  offset="0" style="stop-color:#FFD521"/>
	<stop  offset="0.05511" style="stop-color:#FFD020"/>
	<stop  offset="0.1241" style="stop-color:#FEC01E"/>
	<stop  offset="0.2004" style="stop-color:#FCA71B"/>
	<stop  offset="0.2821" style="stop-color:#FA8316"/>
	<stop  offset="0.3681" style="stop-color:#F85510"/>
	<stop  offset="0.4563" style="stop-color:#F51E09"/>
	<stop  offset="0.5" style="stop-color:#F30005"/>
	<stop  offset="0.5035" style="stop-color:#F20007"/>
	<stop  offset="0.5966" style="stop-color:#E1003B"/>
	<stop  offset="0.6879" style="stop-color:#D30067"/>
	<stop  offset="0.7757" style="stop-color:#C70088"/>
	<stop  offset="0.8589" style="stop-color:#BF00A0"/>
	<stop  offset="0.9357" style="stop-color:#BB00AF"/>
	<stop  offset="1" style="stop-color:#B900B4"/>
</linearGradient>
<path class="st0" d="M256,512L256,512C114.6368,512,0,397.36322,0,256S114.6368,0,256,0s256,114.63681,256,256
	S397.36322,512,256,512z"/>
<path class="st1" d="M256,81.25439c-47.4624,0-53.40158,0.2048-72.03839,1.0752c-18.5856,0.87042-31.28322,3.78882-42.44481,8.14081
	c-11.4688,4.4032-21.248,10.39362-30.9248,20.12161c-9.728,9.728-15.6672,19.45599-20.1728,30.97598
	c-4.3008,11.11041-7.27039,23.80801-8.14079,42.44482c-0.8704,18.63678-1.0752,24.57599-1.0752,72.03839
	s0.2048,53.40158,1.0752,72.03839c0.8704,18.5856,3.7888,31.2832,8.14079,42.44482c4.4544,11.4176,10.4448,21.19678,20.1728,30.8736
	c9.728,9.728,19.456,15.66718,30.97601,20.17282c11.11041,4.30081,23.808,7.27039,42.44479,8.14081
	c18.6368,0.87039,24.576,1.0752,72.03841,1.0752s53.40158-0.20483,72.03839-1.0752
	c18.5856-0.87042,31.2832-3.78882,42.44482-8.14081c11.4176-4.45441,21.19678-10.44482,30.8736-20.17282
	c9.728-9.728,15.66718-19.45599,20.17282-30.97601c4.30081-11.11038,7.27039-23.80798,8.14081-42.44479
	c0.87039-18.63681,1.0752-24.57602,1.0752-72.03842s-0.20483-53.40161-1.0752-72.03839
	c-0.87042-18.58563-3.78882-31.2832-8.14081-42.44482c-4.45441-11.41757-10.44482-21.19678-20.17282-30.87357
	c-9.728-9.728-19.45599-15.66721-30.97601-20.17282c-11.11038-4.30078-23.80798-7.27039-42.44479-8.14078
	C309.40161,81.4592,303.46243,81.25439,256,81.25439z M256,112.7424c46.64319,0,52.17282,0.15359,70.60483,1.02402
	c17.04959,0.76797,26.3168,3.63519,32.46082,6.0416c8.14081,3.17441,13.9776,6.9632,20.0704,13.056
	c6.0928,6.09277,9.88159,11.92957,13.056,20.0704c2.4064,6.14401,5.22241,15.41119,6.0416,32.46078
	c0.81918,18.43201,1.02399,23.96161,1.02399,70.6048s-0.15356,52.17282-1.02399,70.60483
	c-0.76801,17.04959-3.63519,26.3168-6.0416,32.46082c-3.17441,8.14081-6.9632,13.9776-13.056,20.0704
	s-11.9296,9.88159-20.0704,13.056c-6.14401,2.4064-15.41119,5.22241-32.46082,6.0416
	c-18.43201,0.81918-23.96161,1.02399-70.6048,1.02399s-52.17281-0.15356-70.6048-1.02399
	c-17.04961-0.76801-26.3168-3.63519-32.4608-6.0416c-8.14081-3.17441-13.9776-6.9632-20.0704-13.056
	s-9.88161-11.9296-13.05601-20.0704c-2.4064-6.14401-5.2224-15.41119-6.0416-32.46082
	c-0.8192-18.43201-1.024-23.96161-1.024-70.6048s0.1536-52.17282,1.024-70.6048c0.768-17.04959,3.6352-26.3168,6.0416-32.46078
	c3.1744-8.14081,6.9632-13.9776,13.05601-20.07043c6.09279-6.09277,11.92958-9.88159,20.0704-13.056
	c6.144-2.4064,15.41119-5.22238,32.4608-6.0416C203.82721,112.896,209.35681,112.7424,256,112.7424"/>
<path class="st1" d="M256,314.2912c-32.15358,0-58.26558-26.06079-58.26558-58.26556s26.112-58.26558,58.26558-58.26558
	s58.26559,26.06079,58.26559,58.26558C314.26559,288.23047,288.15359,314.2912,256,314.2912z M256,166.27202
	c-49.56158,0-89.75359,40.19202-89.75359,89.75362s40.192,89.7536,89.75359,89.7536s89.7536-40.19202,89.7536-89.7536
	S305.56161,166.27202,256,166.27202z"/>
<ellipse transform="matrix(0.22975 -0.97325 0.97325 0.22975 110.67595 465.27231)" class="st1" cx="349.28644" cy="162.71362" rx="20.99198" ry="20.992"/>
</svg>
