<?xml version="1.0" encoding="utf-8"?>
<!-- Generator: Adobe Illustrator 24.0.1, SVG Export Plug-In . SVG Version: 6.00 Build 0)  -->
<svg version="1.1" id="圖層_1" xmlns="http://www.w3.org/2000/svg" xmlns:xlink="http://www.w3.org/1999/xlink" x="0px" y="0px"
	 viewBox="0 0 512 512" style="enable-background:new 0 0 512 512;" xml:space="preserve">
<style type="text/css">
	.st0{fill:#366AC4;}
	.st1{display:none;fill:#FD8B5C;}
</style>
<path class="st0" d="M215.4,96H144h-36.2H96v8.8V144v40.4v89L0.2,202.5c1.6-18.1,10.9-34.9,25.7-45.8L48,140.3V96
	c0-26.5,21.5-48,48-48h76.6l49.9-36.9C232.2,3.9,243.9,0,256,0s23.8,3.9,33.5,11l49.9,37H416c26.5,0,48,21.5,48,48v44.3l22.1,16.4
	c14.8,10.9,24.1,27.7,25.7,45.8L416,273.4v-89V144v-39.2V96h-11.8H368h-71.4H215.4z M0,448V242.1l217.6,161.2
	c11.1,8.2,24.6,12.7,38.4,12.7s27.3-4.4,38.4-12.7L512,242.1V448l0,0c0,35.3-28.7,64-64,64H64C28.7,512,0,483.3,0,448L0,448z
	 M176,160h160c8.8,0,16,7.2,16,16s-7.2,16-16,16H176c-8.8,0-16-7.2-16-16S167.2,160,176,160z M176,224h160c8.8,0,16,7.2,16,16
	s-7.2,16-16,16H176c-8.8,0-16-7.2-16-16S167.2,224,176,224z"/>
<path class="st1" d="M48,69.5c-26.5,0-48,21.5-48,48c0,15.1,7.1,29.3,19.2,38.4l217.6,163.2c11.4,8.5,27,8.5,38.4,0l217.6-163.2
	c12.1-9.1,19.2-23.3,19.2-38.4c0-26.5-21.5-48-48-48C464,69.5,48,69.5,48,69.5z M0,181.5v208c0,35.3,28.7,64,64,64h384
	c35.3,0,64-28.7,64-64v-208L294.4,344.7c-22.8,17.1-54,17.1-76.8,0L0,181.5z"/>
</svg>
