<?xml version="1.0" encoding="utf-8"?>
<!-- Generator: Adobe Illustrator 24.0.1, SVG Export Plug-In . SVG Version: 6.00 Build 0)  -->
<svg version="1.1" id="圖層_1" xmlns="http://www.w3.org/2000/svg" xmlns:xlink="http://www.w3.org/1999/xlink" x="0px" y="0px"
	 viewBox="0 0 576 512" style="enable-background:new 0 0 576 512;" xml:space="preserve">
<style type="text/css">
	.st0{fill:#FFFFFF;}
</style>
<path class="st0" d="M0,96c0-35.3,28.7-64,64-64h448c35.3,0,64,28.7,64,64v320c0,35.3-28.7,64-64,64H64c-35.3,0-64-28.7-64-64V96z
	 M128,288c17.7,0,32-14.3,32-32s-14.3-32-32-32s-32,14.3-32,32S110.3,288,128,288z M160,160c0-17.7-14.3-32-32-32s-32,14.3-32,32
	s14.3,32,32,32S160,177.7,160,160z M128,384c17.7,0,32-14.3,32-32s-14.3-32-32-32s-32,14.3-32,32S110.3,384,128,384z M224,136
	c-13.3,0-24,10.7-24,24s10.7,24,24,24h224c13.3,0,24-10.7,24-24s-10.7-24-24-24H224z M224,232c-13.3,0-24,10.7-24,24
	c0,13.3,10.7,24,24,24h224c13.3,0,24-10.7,24-24s-10.7-24-24-24H224z M224,328c-13.3,0-24,10.7-24,24s10.7,24,24,24h224
	c13.3,0,24-10.7,24-24s-10.7-24-24-24H224z"/>
</svg>
