<?xml version="1.0" encoding="utf-8"?>
<!-- Generator: Adobe Illustrator 24.0.1, SVG Export Plug-In . SVG Version: 6.00 Build 0)  -->
<svg version="1.1" id="圖層_1" xmlns="http://www.w3.org/2000/svg" xmlns:xlink="http://www.w3.org/1999/xlink" x="0px" y="0px"
	 viewBox="0 0 640 512" style="enable-background:new 0 0 640 512;" xml:space="preserve">
<style type="text/css">
	.st0{fill:#FFFFFF;}
</style>
<path class="st0" d="M208,0c114.9,0,208,78.8,208,176s-93.1,176-208,176c-18.7,0-36.8-2.3-54.1-6.2C123.3,364.8,79.1,384,25,384
	c-10,0-19-5.9-22.9-15.1c-3.9-9.2-2-19.8,4.7-27c0.5-0.4,22.6-24.5,39-56C17.2,255.8,0,217.6,0,176C0,78.8,93.1,0,208,0z
	 M164.6,298.1c14.6,4.2,29.2,5.9,43.4,5.9c88.2,0,160-57.4,160-128S296.2,48,208,48S48,105.4,48,176c0,35.2,17.7,61.2,32.6,76.9
	l23.5,24.9l-15.8,30.3c-3.6,6-7.6,13.8-11.8,20.4c17.7-5.1,35.1-13,52.1-24.4l16.7-9.5L164.6,298.1z M441.6,128.2
	C552,132.4,640,209.5,640,304c0,41.6-17.2,79.8-45.7,109.9c16.3,31.5,38.4,55.6,39,56c6.7,7.2,8.6,17.8,3.8,27
	c-3,9.2-12.1,15.1-22.1,15.1c-54.1,0-98.3-19.2-128.9-38.2c-17.3,3.9-35.4,6.2-54.1,6.2c-82,0-152.9-40.2-186.8-98.5
	c17.3-2.3,33.9-6.2,49.7-11.6c28,37.2,79,62.1,137.1,62.1c14.2,0,28.8-1.7,43.4-5.9l19.2-3.5l16.7,9.5c17,11.4,34.4,19.3,52.2,24.4
	c-4.2-6.6-8.2-14.4-11.8-20.4l-15.8-30.3l23.5-24.9c14.9-15.6,32.6-41.7,32.6-76.9c0-66.3-63.3-120.9-144.9-127.4l0.9-0.6
	C448,159.5,445.8,143.5,441.6,128.2L441.6,128.2z"/>
</svg>
