<svg width="373" height="65" viewBox="0 0 373 65" fill="none" xmlns="http://www.w3.org/2000/svg">
<g filter="url(#filter0_d_2684_7996)">
<path d="M344.65 54.8067C344.88 55.3367 345.33 55.7367 346.05 55.9367C346.76 56.1267 347.73 56.0567 348.83 55.5667C349.92 55.0767 351.11 54.0667 351.95 52.6067C352.8 51.1567 353.22 49.2967 353.09 47.4867C353.05 46.5667 352.78 45.4167 352.3 44.2067C351.81 42.9867 351.06 41.7267 350.08 40.5967C349.1 39.4667 347.91 38.4567 346.62 37.6567C345.33 36.8567 343.94 36.2567 342.59 35.8567C341.23 35.4767 339.91 35.2767 338.71 35.1967C338.11 35.1767 337.54 35.1667 337.01 35.1867C336.48 35.2267 335.99 35.2567 335.54 35.3167C335.09 35.3867 334.69 35.4567 334.34 35.5367C333.99 35.6167 333.69 35.7167 333.45 35.7967C332.96 35.9667 332.7 36.1267 332.7 36.2667C332.7 36.3867 332.96 36.5467 333.42 36.7367C333.93 36.9367 334.57 37.1867 335.29 37.4667C335.67 37.6167 336.08 37.8067 336.51 37.9867C336.93 38.1867 337.37 38.4067 337.82 38.6367C338.71 39.1167 339.61 39.6867 340.45 40.3367C341.27 40.9967 342.02 41.7367 342.63 42.5067C343.24 43.2767 343.7 44.0667 344.02 44.8067C344.34 45.5467 344.51 46.2167 344.59 46.7667C344.63 46.9067 344.62 47.0367 344.64 47.1567C344.66 47.2767 344.68 47.3967 344.67 47.4967C344.67 47.6067 344.68 47.6967 344.7 47.7967C344.7 47.8867 344.7 47.9667 344.71 48.0467C344.75 48.6567 344.79 49.1467 344.81 49.6367C344.83 50.1267 344.85 50.6567 344.77 51.2467C344.64 52.4067 344.18 53.7267 344.65 54.8067Z" fill="#365A97"/>
<path d="M354.411 36.5671C347.001 33.3071 336.611 32.4271 335.241 32.3271C335.151 32.3171 335.091 32.2671 335.091 32.2071L331.481 29.0171C331.001 28.5971 331.001 27.8471 331.481 27.4271L335.091 24.2371C335.091 24.1771 335.151 24.1271 335.241 24.1171C336.611 24.0171 346.201 23.2771 354.411 19.8771C354.471 19.8471 366.251 26.4371 368.711 27.9171C368.961 28.0671 368.961 28.3571 368.711 28.5071C366.251 30.0071 354.471 36.5971 354.411 36.5671Z" fill="#365A97"/>
<path d="M344.65 1.22741C344.88 0.69741 345.33 0.29741 346.05 0.0974099C346.76 -0.09259 347.73 -0.02259 348.83 0.46741C349.92 0.95741 351.11 1.96741 351.95 3.42741C352.8 4.87741 353.22 6.73741 353.09 8.54741C353.05 9.46741 352.78 10.6174 352.3 11.8274C351.81 13.0474 351.06 14.3074 350.08 15.4374C349.1 16.5674 347.91 17.5774 346.62 18.3774C345.33 19.1774 343.94 19.7774 342.59 20.1774C341.23 20.5574 339.91 20.7674 338.71 20.8374C338.11 20.8574 337.54 20.8674 337.01 20.8474C336.48 20.8074 335.99 20.7774 335.54 20.7174C335.09 20.6474 334.69 20.5774 334.34 20.4974C333.99 20.4174 333.69 20.3174 333.45 20.2374C332.96 20.0674 332.7 19.9074 332.7 19.7674C332.7 19.6474 332.96 19.4874 333.42 19.2974C333.93 19.0974 334.57 18.8474 335.29 18.5674C335.67 18.4174 336.08 18.2274 336.51 18.0474C336.93 17.8474 337.37 17.6274 337.82 17.3974C338.71 16.9174 339.61 16.3474 340.45 15.6974C341.27 15.0374 342.02 14.2974 342.63 13.5274C343.24 12.7574 343.7 11.9674 344.02 11.2274C344.34 10.4874 344.51 9.81741 344.59 9.26741C344.63 9.12741 344.62 8.99741 344.64 8.87741C344.66 8.75741 344.68 8.63741 344.67 8.53741C344.67 8.42741 344.68 8.33741 344.7 8.23741C344.7 8.14741 344.7 8.06741 344.71 7.98741C344.75 7.37741 344.79 6.88741 344.81 6.39741C344.83 5.90741 344.85 5.37741 344.77 4.78741C344.64 3.62741 344.18 2.30741 344.65 1.22741Z" fill="#365A97"/>
<path d="M328.62 28.1576C328.62 28.1576 316.02 22.2176 316 28.1576C315.97 34.2276 329.37 28.5076 328.62 28.1576Z" fill="#365A97"/>
<path d="M328.591 31.3869C328.591 31.3869 318.931 35.3569 322.201 38.3669C325.541 41.4469 329.161 31.1469 328.591 31.3869Z" fill="#365A97"/>
<path d="M328.222 24.938C328.222 24.938 326.522 14.638 322.852 17.148C319.102 19.718 328.322 25.558 328.222 24.938Z" fill="#365A97"/>
</g>
<g filter="url(#filter1_d_2684_7996)">
<path fill-rule="evenodd" clip-rule="evenodd" d="M308.277 27.3402C308.547 27.9667 308.757 28.6519 308.857 29.3959C308.927 30.1398 308.907 30.9376 308.777 31.7795C308.737 31.9192 308.699 32.0605 308.661 32.2033C308.585 32.4858 308.507 32.7741 308.407 33.0667C308.357 33.1768 308.305 33.2869 308.252 33.3971C308.2 33.5072 308.147 33.6173 308.097 33.7274C308.072 33.7837 308.045 33.84 308.017 33.8963C307.99 33.9526 307.962 34.0089 307.937 34.0652C307.922 34.0948 307.907 34.1247 307.891 34.1547C307.849 34.2388 307.806 34.3235 307.747 34.4029C306.667 36.1942 304.667 38.0492 301.727 39.6692L301.722 39.6719C301.344 39.8668 300.966 40.0617 300.577 40.2566C300.531 40.2806 300.484 40.3052 300.437 40.33C300.293 40.4061 300.146 40.4838 299.987 40.5503C299.777 40.6384 299.567 40.7313 299.357 40.8243C299.227 40.8808 299.097 40.9386 298.966 40.9968C298.678 41.1251 298.387 41.2546 298.077 41.3725L298.076 41.3731C297.626 41.5442 297.177 41.7153 296.717 41.8864C296.401 42.0102 296.065 42.1195 295.727 42.2296C295.584 42.2762 295.44 42.3229 295.297 42.371C295.047 42.4493 294.807 42.5276 294.567 42.6059C294.327 42.6891 294.087 42.7674 293.827 42.8359C293.645 42.8878 293.461 42.9396 293.276 42.9917C292.955 43.0822 292.631 43.1734 292.307 43.2666C292.057 43.3401 291.787 43.4086 291.527 43.4722L290.737 43.668C287.627 44.4315 284.437 45.0091 281.317 45.4496C278.197 45.8852 275.127 46.2033 272.197 46.4186C269.257 46.634 266.457 46.7612 263.837 46.8396C261.207 46.9032 258.767 46.9228 256.537 46.8983C252.077 46.8542 248.497 46.6634 246.037 46.5067C245.427 46.4676 244.877 46.4284 244.407 46.3942C244.294 46.3847 244.185 46.3756 244.08 46.3668C243.749 46.3391 243.46 46.3149 243.217 46.2963C242.577 46.2425 242.237 46.2131 242.237 46.2131C242.237 46.2131 242.577 46.218 243.227 46.2278C243.547 46.2327 243.947 46.2375 244.427 46.2473C244.897 46.2522 245.447 46.2571 246.067 46.262C248.537 46.2718 252.107 46.2571 256.487 46.1054C258.677 46.032 261.067 45.9145 263.617 45.7628C266.167 45.5964 268.877 45.381 271.697 45.1021C274.517 44.8231 277.437 44.456 280.397 43.9959C283.347 43.5309 286.347 42.9681 289.257 42.2486L289.997 42.0675C290.247 42.0088 290.497 41.9451 290.727 41.8766C291.207 41.7445 291.677 41.6123 292.147 41.4802C292.387 41.4165 292.617 41.348 292.837 41.2746L293.507 41.0593C293.633 41.0189 293.76 40.9793 293.888 40.9395C294.21 40.8397 294.534 40.7392 294.827 40.6237C295.257 40.4722 295.676 40.3208 296.095 40.1694L296.097 40.1685C296.359 40.0715 296.609 39.9666 296.86 39.8613C297.001 39.8018 297.143 39.7422 297.287 39.6839C297.351 39.6575 297.413 39.6312 297.475 39.6049C297.609 39.5484 297.741 39.4927 297.877 39.4392C297.994 39.3935 298.097 39.3429 298.2 39.292C298.274 39.2557 298.348 39.2194 298.427 39.1847L299.507 38.6708C302.267 37.2563 304.247 35.6461 305.467 34.0358C306.687 32.4255 307.157 30.8202 307.287 29.4155C307.337 28.7107 307.267 28.0499 307.137 27.443C307.111 27.3553 307.088 27.2688 307.065 27.1836C307.008 26.9739 306.953 26.7716 306.867 26.5767C306.807 26.4396 306.757 26.3075 306.707 26.1754C306.673 26.1025 306.635 26.0297 306.598 25.9578C306.571 25.9041 306.543 25.8508 306.517 25.7985C306.402 25.636 306.255 25.4735 306.103 25.3064C306.031 25.2269 305.958 25.1464 305.887 25.0643C305.821 24.9939 305.748 24.9249 305.675 24.855C305.616 24.7986 305.555 24.7416 305.497 24.6826C305.458 24.6405 305.414 24.5985 305.368 24.555C305.345 24.5327 305.321 24.51 305.297 24.4868C305.257 24.455 305.22 24.4219 305.182 24.3889C305.145 24.3559 305.107 24.3228 305.067 24.291C304.467 23.7575 303.707 23.2143 302.787 22.6808C300.947 21.6089 298.427 20.5909 295.277 19.842C294.237 19.5924 293.137 19.3721 291.987 19.1861C292.217 19.5679 292.387 19.9644 292.487 20.3755C292.707 21.2369 292.567 22.1619 292.007 23.0282C291.447 23.8946 290.487 24.6826 289.347 25.3531C288.207 26.0334 286.877 26.5914 285.497 27.0808C282.707 28.0548 279.687 28.7596 276.587 29.3518C273.487 29.9392 270.297 30.3992 267.057 30.7908C260.577 31.5641 253.897 32.0682 247.097 32.4255C244.597 32.5528 242.107 32.6605 239.637 32.7535C239.043 32.7748 238.448 32.7949 237.855 32.815C237.221 32.8365 236.588 32.8579 235.957 32.8807L235.82 32.8853C234.677 32.9232 233.429 32.9647 232.227 32.9835C227.207 33.0667 222.287 32.9052 217.497 32.543L217.493 32.5426C216.934 32.4987 216.376 32.4548 215.827 32.406C213.277 33.2918 210.807 34.1337 208.447 34.9217C206.646 35.5158 204.916 36.0834 203.267 36.6247L202.997 36.713C201.291 37.2397 199.67 37.7434 198.151 38.2152L198.007 38.2597C197.618 38.3817 197.239 38.4989 196.86 38.616L196.857 38.617C196.762 38.6464 196.67 38.6745 196.577 38.7027C196.485 38.7308 196.392 38.7589 196.297 38.7882L195.727 38.9498C195.515 39.0095 195.304 39.0684 195.097 39.1266C194.571 39.2737 194.062 39.4164 193.567 39.5567C192.522 39.863 191.505 40.1151 190.567 40.3479C190.276 40.4201 189.992 40.4905 189.717 40.56C189.534 40.6163 189.348 40.6741 189.159 40.7328C188.772 40.8529 188.374 40.9768 187.957 41.0984C187.423 41.2438 186.859 41.3998 186.279 41.5604L185.967 41.6466C185.823 41.6867 185.676 41.7274 185.529 41.7685C184.973 41.9234 184.396 42.0841 183.787 42.2388C183.027 42.4274 182.227 42.6208 181.407 42.819L181.377 42.8261L181.375 42.8266C180.956 42.9292 180.537 43.0319 180.107 43.1345C179.813 43.2083 179.504 43.2729 179.194 43.3378C179.051 43.3676 178.909 43.3974 178.767 43.4282C178.585 43.4665 178.401 43.5051 178.215 43.5438C177.479 43.6981 176.725 43.8561 175.957 44.0204C175.324 44.1482 174.67 44.2656 174.005 44.3848C173.651 44.4482 173.295 44.5121 172.937 44.5783C172.722 44.6177 172.503 44.657 172.281 44.6967C171.979 44.7508 171.673 44.8057 171.367 44.8622C170.953 44.9336 170.533 44.9962 170.112 45.0591C169.984 45.0782 169.856 45.0973 169.727 45.1167C165.337 45.8264 160.397 46.3746 155.107 46.6976C149.817 47.0207 144.147 47.1039 138.347 46.8543C137.396 46.7971 136.444 46.744 135.5 46.6912L135.177 46.6732C135.005 46.662 134.834 46.6525 134.664 46.6429C134.31 46.6231 133.959 46.6034 133.607 46.5704C133.164 46.5286 132.72 46.4904 132.283 46.4528L132.057 46.4333C131.663 46.3974 131.269 46.3629 130.876 46.3285C130.251 46.2739 129.627 46.2193 129.007 46.1592C128.007 46.0418 127.017 45.9243 126.037 45.8068C125.792 45.7774 125.549 45.748 125.307 45.7186C125.064 45.6893 124.822 45.66 124.577 45.6307C124.212 45.5905 123.846 45.5367 123.485 45.4835C123.362 45.4654 123.239 45.4474 123.117 45.43C122.882 45.3908 122.645 45.3529 122.408 45.315C122.17 45.277 121.932 45.2391 121.697 45.1999C121.227 45.1216 120.767 45.0433 120.307 44.9552C118.477 44.6126 116.737 44.2357 115.067 43.8295C110.627 42.7429 106.757 41.4998 103.507 40.2027C101.667 39.8112 99.8874 39.3609 98.1674 38.8372C93.7374 37.501 89.8374 35.5971 87.5474 33.282C86.607 32.3536 85.9493 31.3705 85.5155 30.3848H75.9669C76.3429 30.6433 76.5714 30.9361 76.6074 31.2467C76.6474 31.4621 76.5674 31.6725 76.4274 31.8732C76.2974 32.0739 76.0574 32.2648 75.7774 32.441C75.2074 32.7933 74.3574 33.0919 73.3474 33.2094C72.3174 33.3268 71.3074 33.2192 70.4774 32.9059C70.0574 32.7493 69.7374 32.5437 69.4674 32.3039C69.2074 32.0641 69.0574 31.7851 69.0074 31.4865C68.9593 31.0796 69.1473 30.698 69.5033 30.3848H7.64874C7.48357 31.3053 6.73718 32 5.84139 32C4.82441 32 4 31.1046 4 30C4 28.8954 4.82441 28 5.84139 28C6.66074 28 7.35511 28.5812 7.59403 29.3848H85.1642C84.8783 28.2524 84.7976 27.0868 85.2374 25.9747C85.6774 24.7658 86.4274 23.5862 87.5774 22.5388C88.6974 21.4865 90.0474 20.5174 91.6074 19.6805C92.12 19.3753 92.6902 19.1054 93.2582 18.8366C93.5101 18.7173 93.7616 18.5983 94.0074 18.4764C94.2836 18.3542 94.5641 18.2382 94.8461 18.1217C94.9929 18.061 95.1402 18.0001 95.2874 17.9381C95.7174 17.757 96.1474 17.5808 96.5974 17.4242L96.6024 17.4224C97.0508 17.2615 97.4991 17.1005 97.9374 16.9396C98.2442 16.8352 98.551 16.7394 98.8577 16.6437C99.0109 16.5959 99.1642 16.548 99.3174 16.4991C99.9963 16.2739 100.709 16.0793 101.418 15.886C101.649 15.823 101.879 15.7602 102.107 15.6964C105.877 14.7029 109.817 14.0372 113.707 13.6065C117.597 13.1905 121.477 13.0143 125.187 13.1367C128.897 13.2541 132.437 13.6457 135.587 14.3211C138.737 14.9916 141.457 15.9558 143.507 17.0865C145.597 18.1877 147.077 19.5435 147.387 20.9139C147.717 22.2843 146.927 23.5569 145.757 24.526C144.587 25.5048 143.117 26.2439 141.687 26.8263C138.787 27.9765 136.097 28.5149 134.287 28.8183C133.367 28.9701 132.657 29.0582 132.177 29.112C131.697 29.1659 131.447 29.1903 131.447 29.1903C131.447 29.1903 131.687 29.1512 132.157 29.0827C132.427 29.0435 132.777 28.9847 133.197 28.9064C132.767 28.9652 132.307 28.9994 131.837 28.9994C128.957 28.9994 126.627 27.8591 126.627 26.4495C126.627 25.0399 128.957 23.8995 131.837 23.8995C134.717 23.8995 137.047 25.0399 137.047 26.4495C137.047 27.4088 135.967 28.2408 134.367 28.6764C136.107 28.3044 138.587 27.6779 141.127 26.518C142.417 25.9159 143.707 25.1671 144.657 24.2372C145.607 23.317 146.127 22.1864 145.697 21.0362C145.287 19.8861 143.907 18.7652 141.907 17.8255C139.947 16.8662 137.437 16.0733 134.557 15.5447C128.777 14.4777 121.637 14.4288 114.557 15.3636C111.027 15.8286 107.457 16.5138 104.107 17.4731C103.912 17.532 103.715 17.5901 103.518 17.6482C102.88 17.8363 102.241 18.0246 101.637 18.2415C101.456 18.306 101.27 18.3684 101.085 18.4306C100.862 18.5054 100.64 18.58 100.427 18.6575C100.232 18.7335 100.039 18.8083 99.8466 18.883C99.6544 18.9576 99.4621 19.0321 99.2674 19.1078C98.8674 19.2498 98.4974 19.4113 98.1374 19.5777L98.1367 19.578C97.767 19.7394 97.3972 19.9008 97.0374 20.0671C96.8325 20.1749 96.6209 20.2809 96.4089 20.3871C95.9278 20.6282 95.4439 20.8706 95.0274 21.139C93.7274 21.8781 92.6574 22.7052 91.7874 23.5764C90.8874 24.4428 90.3574 25.3923 90.0574 26.3467C89.7174 27.3109 89.8874 28.2946 90.1974 29.2833C90.2103 29.3172 90.2235 29.351 90.2369 29.3848H131.813V30.3848H90.7279C91.0896 30.9982 91.5603 31.5952 92.1574 32.1612C94.0274 33.9771 97.1474 35.4894 100.957 36.6249C104.767 37.7653 109.187 38.5582 113.817 39.1211C116.977 39.4979 120.167 39.7867 123.387 39.9531C123.847 39.9783 124.306 40.0063 124.763 40.0342C125.907 40.1039 127.045 40.1734 128.187 40.1978C128.987 40.2272 129.787 40.2566 130.577 40.281L131.767 40.3202L132.957 40.33C139.277 40.4328 145.467 40.2076 151.407 39.6937C163.297 38.6561 174.007 36.4536 183.467 34.0505C188.095 32.8557 192.443 31.6092 196.532 30.3848H131.906V29.3848H198.268C197.949 29.2891 197.633 29.1906 197.317 29.0875C195.337 28.4415 193.487 27.6877 191.907 26.8067C191.799 26.7424 191.689 26.6789 191.578 26.6154C191.303 26.4566 191.027 26.2977 190.777 26.1264C190.437 25.8866 190.097 25.6419 189.767 25.4021C189.553 25.2136 189.343 25.0224 189.135 24.8325C189.063 24.766 188.99 24.6996 188.917 24.6336C188.767 24.5064 188.657 24.3742 188.547 24.2372L188.217 23.8358C188.179 23.7829 188.136 23.7306 188.093 23.6785C188.024 23.5959 187.956 23.5136 187.907 23.4296L187.667 23.0136C187.634 22.9508 187.598 22.8882 187.563 22.8258C187.442 22.6109 187.322 22.3977 187.267 22.1815L187.252 22.1377C187.157 21.8738 187.064 21.6138 186.997 21.3495C186.967 21.0705 186.937 20.7915 186.907 20.5174C186.871 20.3157 186.893 20.114 186.916 19.9143C186.924 19.8426 186.932 19.7711 186.937 19.7001C186.951 19.6105 186.957 19.5204 186.964 19.4305C186.977 19.2501 186.991 19.0705 187.057 18.8974C187.083 18.8134 187.108 18.7294 187.133 18.6456C187.263 18.2064 187.392 17.7699 187.627 17.3507C187.687 17.226 187.75 17.1013 187.812 16.9766C187.875 16.8517 187.937 16.7268 187.997 16.6019L188.477 15.8824C188.549 15.7875 188.61 15.6934 188.672 15.5995C188.766 15.456 188.861 15.3128 188.987 15.1678C189.072 15.0757 189.15 14.9836 189.229 14.8918C189.355 14.7445 189.48 14.598 189.627 14.4533C190.557 13.5184 191.827 12.6668 193.367 11.9865C194.907 11.3012 196.687 10.7825 198.547 10.4545C202.267 9.784 206.317 9.86719 209.637 10.6258C211.297 11.0027 212.747 11.5998 213.757 12.3193C214.767 13.0388 215.287 13.8855 215.347 14.6882C215.407 15.4909 215.077 16.2446 214.607 16.9249C214.557 16.9896 214.509 17.0549 214.462 17.1202C214.387 17.2229 214.313 17.3254 214.227 17.4242C214.087 17.5808 213.947 17.7374 213.807 17.8891C213.584 18.1588 213.308 18.4141 213.038 18.6642C212.994 18.7045 212.95 18.7447 212.907 18.7848C212.721 18.9733 212.49 19.1498 212.261 19.3244C212.133 19.4219 212.006 19.5187 211.887 19.6169C211.792 19.6805 211.692 19.7442 211.592 19.8078C211.492 19.8714 211.392 19.935 211.297 19.9986L211.007 20.1846L210.677 20.3608C209.827 20.8258 208.807 21.2271 207.607 21.4278C206.417 21.6383 205.097 21.5795 204.087 21.3544C203.057 21.1292 202.277 20.7768 201.687 20.4097C201.087 20.0427 200.667 19.6462 200.397 19.2547C200.127 18.8631 199.967 18.4863 199.977 18.1241C199.957 17.5955 200.297 17.1305 200.817 16.8124C201.447 16.2104 202.727 15.8041 204.197 15.8041C206.297 15.8041 208.007 16.6411 208.007 17.6689C208.007 18.6967 206.297 19.5337 204.197 19.5337C202.357 19.5337 200.827 18.9023 200.467 18.0555V18.1094C200.497 18.4373 200.707 18.7848 201.007 19.1323C201.307 19.4798 201.737 19.8322 202.317 20.1406C202.897 20.4489 203.617 20.7279 204.467 20.8796C205.317 21.0313 206.267 21.0411 207.157 20.8503C208.047 20.6692 208.857 20.3167 209.547 19.886L209.767 19.7098L210.007 19.5337C210.167 19.4162 210.327 19.2987 210.487 19.1763C210.542 19.1266 210.598 19.0768 210.655 19.0267C210.743 18.9488 210.832 18.8702 210.917 18.7897C211.067 18.6575 211.207 18.5254 211.327 18.3835C212.347 17.2675 213.357 16.0097 213.097 14.7371C212.977 14.1058 212.507 13.4989 211.707 12.9898C210.897 12.4857 209.787 12.0648 208.467 11.8054C205.837 11.2768 202.537 11.2866 199.637 11.8886C196.717 12.4759 194.247 13.6555 192.907 15.1874C192.808 15.2989 192.722 15.4138 192.636 15.5291C192.575 15.6111 192.514 15.6934 192.447 15.7748C192.349 15.9033 192.268 16.0465 192.187 16.1893C192.144 16.2641 192.102 16.3387 192.057 16.411C191.964 16.578 191.865 16.745 191.765 16.9143C191.736 16.9633 191.707 17.0125 191.677 17.062L191.407 17.7227C191.239 18.0638 191.164 18.4049 191.089 18.7481C191.066 18.8531 191.043 18.9583 191.017 19.0638C190.972 19.2095 190.973 19.3551 190.974 19.5008C190.974 19.5803 190.975 19.6597 190.967 19.7392C190.967 19.8054 190.963 19.872 190.959 19.9386C190.948 20.0987 190.938 20.2591 190.987 20.4146C191.007 20.5262 191.027 20.6366 191.047 20.747C191.067 20.8593 191.087 20.9716 191.107 21.0852C191.147 21.2101 191.2 21.3335 191.252 21.4571C191.293 21.5513 191.333 21.6457 191.367 21.741C191.411 21.9044 191.512 22.0575 191.614 22.2114C191.653 22.2696 191.692 22.328 191.727 22.3871L191.927 22.7052C191.974 22.777 192.039 22.8444 192.103 22.9119C192.135 22.9456 192.167 22.9793 192.197 23.0136L192.477 23.3219L192.478 23.322C192.567 23.4248 192.657 23.5275 192.787 23.6254C192.902 23.7232 193.02 23.821 193.137 23.9188C193.255 24.0168 193.372 24.1147 193.487 24.2127C193.628 24.3058 193.765 24.3989 193.903 24.4919C194.04 24.5848 194.178 24.6778 194.317 24.7707C194.504 24.8946 194.717 25.0099 194.931 25.1252C195.037 25.1828 195.144 25.2405 195.247 25.2993C196.557 25.9845 198.107 26.5914 199.827 27.12C201.047 27.4969 202.357 27.8248 203.717 28.1184C205.337 27.6094 206.917 27.1151 208.457 26.6403C215.847 24.3546 222.387 22.4703 227.817 21.0313C233.047 19.426 239.557 17.5074 247.537 15.672C251.537 14.7714 255.907 13.8855 260.757 13.2052C263.177 12.8675 265.727 12.5885 268.417 12.4319C271.097 12.2703 273.937 12.2361 276.857 12.471C278.317 12.5885 279.777 12.7892 281.217 13.0779C282.657 13.3618 284.057 13.7485 285.307 14.2428C286.567 14.7322 287.697 15.3098 288.657 15.946C289.437 16.4844 290.087 17.0228 290.677 17.6053C292.727 17.9185 294.637 18.3296 296.357 18.8142C299.687 19.749 302.257 20.9775 303.997 22.2109C304.877 22.8276 305.567 23.4443 306.077 24.0316C306.094 24.0495 306.111 24.0671 306.128 24.0845C306.181 24.1387 306.232 24.1914 306.277 24.247C306.307 24.2837 306.335 24.3192 306.362 24.3547C306.39 24.3901 306.417 24.4256 306.447 24.4623C306.488 24.517 306.531 24.5703 306.572 24.6228C306.643 24.7112 306.711 24.7972 306.767 24.8832C306.801 24.9346 306.834 24.9853 306.866 25.0355C307.012 25.2576 307.15 25.4685 307.247 25.6761C307.305 25.7468 307.36 25.8191 307.414 25.8921C307.455 25.9455 307.495 25.9992 307.537 26.053C307.588 26.1279 307.636 26.2043 307.684 26.2814C307.721 26.3404 307.758 26.3998 307.797 26.4592C307.92 26.6362 308.014 26.8234 308.11 27.0168C308.163 27.1229 308.217 27.231 308.277 27.3402ZM211.312 29.3848C210.566 29.2949 209.837 29.1906 209.112 29.0869C208.907 29.0576 208.702 29.0283 208.497 28.9994L208.492 28.9985C207.984 28.9156 207.475 28.8327 206.967 28.7449C207.387 28.6006 207.803 28.4563 208.217 28.3126C208.8 28.1104 209.379 27.9096 209.957 27.7122C217.057 25.2503 223.317 23.1898 228.517 21.5893C233.917 20.1601 240.617 18.4471 248.617 16.8515C252.617 16.0684 256.957 15.3098 261.617 14.7714C263.947 14.5022 266.357 14.2966 268.807 14.1987C271.257 14.1009 273.757 14.1302 276.157 14.3701C278.547 14.6197 280.827 15.0846 282.657 15.858C283.027 16.0146 283.387 16.1859 283.727 16.3621C283.618 16.3231 283.499 16.2841 283.379 16.2451L283.377 16.2446C282.077 15.8139 280.307 15.3979 278.087 15.1727C276.977 15.0748 275.777 14.9965 274.497 14.9916C273.217 14.9916 271.867 15.0259 270.467 15.1336C264.847 15.5349 258.577 16.8026 252.127 18.5303C250.517 18.961 248.877 19.4162 247.237 19.8958C245.607 20.3902 243.937 20.8943 242.237 21.4033C242.122 21.4382 242.007 21.4734 241.89 21.5087C241.582 21.6026 241.27 21.6976 240.957 21.79L239.697 22.2011C238.857 22.4752 238.007 22.7542 237.157 23.038C236.307 23.3219 235.447 23.6058 234.577 23.8897C233.9 24.1172 233.228 24.3538 232.558 24.59C232.378 24.6536 232.198 24.7171 232.017 24.7805C227.543 26.3378 223.293 27.8915 219.281 29.3848H211.312ZM224.471 29.3848C224.637 29.3261 224.805 29.2674 224.972 29.2085C227.867 28.1906 230.847 27.1432 233.897 26.0824C240.737 23.7135 247.287 21.5208 253.487 19.7001C256.577 18.7946 259.567 17.987 262.457 17.3409C263.907 17.0179 265.327 16.734 266.707 16.4942C268.097 16.2544 269.447 16.0684 270.757 15.9216C272.067 15.7699 273.327 15.6915 274.527 15.6475C275.727 15.6034 276.867 15.6279 277.917 15.6769C280.027 15.7992 281.777 16.1125 283.107 16.4649C283.646 16.5947 284.089 16.7448 284.493 16.8816C284.576 16.9098 284.657 16.9374 284.737 16.9641C284.747 16.9714 284.76 16.98 284.772 16.9886C284.785 16.9971 284.797 17.0057 284.807 17.013C284.782 17.0106 284.755 17.0094 284.727 17.0081C284.7 17.0069 284.672 17.0057 284.647 17.0032C284.482 16.9959 284.317 16.9872 284.153 16.9785C283.771 16.9583 283.389 16.9381 282.997 16.9347C282.437 16.9249 281.867 16.9152 281.297 16.9054L279.577 16.9347C279.167 16.9451 278.762 16.9678 278.354 16.9905C278.186 16.9999 278.017 17.0093 277.847 17.0179C275.527 17.1599 273.207 17.4535 270.967 17.8597C267.657 18.4569 264.677 19.2791 261.947 20.1357C259.217 20.9922 256.737 21.9025 254.407 22.7738C253.403 23.1492 252.429 23.5193 251.48 23.8796C250.227 24.3552 249.02 24.8138 247.847 25.2454C245.787 26.0041 243.837 26.6893 242.007 27.2717C238.939 28.2591 236.175 28.9421 234.006 29.3848H224.471ZM231.743 30.3848C229.832 30.4203 227.925 30.4197 226.033 30.3848H231.743ZM257.086 29.1053C255.837 29.205 254.58 29.2979 253.316 29.3848H236.159C238.105 29.0569 240.374 28.5917 242.827 27.9471C244.807 27.4381 246.917 26.8214 249.117 26.1264C251.317 25.4314 253.617 24.6581 256.017 23.8505L256.439 23.7096C258.711 22.9493 261.083 22.1554 263.597 21.418C266.267 20.6349 269.087 19.886 272.107 19.3428C276.207 18.589 280.387 18.2807 284.387 18.4618C285.157 18.4911 285.917 18.5352 286.667 18.5841C286.696 18.6153 286.725 18.647 286.755 18.6792C286.81 18.738 286.866 18.7981 286.917 18.8582C287.917 20.0231 288.207 21.232 287.457 22.299C286.697 23.366 284.897 24.3253 282.597 25.0888C280.297 25.8621 277.597 26.4739 274.747 26.9878C271.897 27.5017 268.887 27.9129 265.797 28.2702C263.315 28.5533 260.783 28.7985 258.211 29.0134C258.113 29.0046 258.012 29 257.909 29C257.613 29 257.333 29.0379 257.086 29.1053ZM204.674 34.8628C205.447 34.5749 206.235 34.2813 207.037 33.9819C207.722 33.7271 208.415 33.4674 209.118 33.2038C210.131 32.8242 211.165 32.4366 212.227 32.0438C211.617 31.9752 211.017 31.9018 210.417 31.8235C209.378 31.6963 208.355 31.5377 207.333 31.3794C207.215 31.361 207.096 31.3426 206.977 31.3243C206.742 31.2825 206.507 31.2414 206.272 31.2003C205.379 31.0441 204.491 30.8887 203.627 30.7027C203.167 30.6048 202.707 30.5069 202.247 30.4041C201.057 30.8201 199.837 31.2411 198.577 31.662C194.487 33.0226 190.097 34.4078 185.367 35.7439C180.607 37.0654 175.507 38.338 169.997 39.4441C164.497 40.5503 158.577 41.4753 152.327 42.092C146.077 42.6989 139.507 42.9877 132.817 42.9191L131.557 42.9142L130.297 42.88L127.777 42.8066C126.546 42.7852 125.32 42.7144 124.091 42.6435C123.634 42.6171 123.176 42.5906 122.717 42.5667C119.337 42.4003 115.917 42.1018 112.507 41.6906C112.422 41.6808 112.337 41.6698 112.252 41.6588C112.167 41.6478 112.082 41.6368 111.997 41.627C113.337 41.9794 114.737 42.3171 116.197 42.6353C117.817 42.9877 119.517 43.3205 121.267 43.6142C121.487 43.6509 121.71 43.6851 121.932 43.7194C122.155 43.7536 122.377 43.7879 122.597 43.8246C122.822 43.8564 123.047 43.8894 123.272 43.9225C123.497 43.9555 123.722 43.9886 123.947 44.0204C124.126 44.0418 124.305 44.0655 124.486 44.0895C124.759 44.1256 125.034 44.1622 125.317 44.1917C125.552 44.2162 125.79 44.2418 126.027 44.2675C126.265 44.2932 126.502 44.3189 126.737 44.3434C127.152 44.3883 127.569 44.4341 127.986 44.48C128.525 44.5392 129.066 44.5987 129.607 44.6566C130.118 44.7 130.629 44.7407 131.142 44.7816C131.612 44.8191 132.084 44.8567 132.557 44.8965C132.807 44.9161 133.055 44.9369 133.302 44.9577C133.55 44.9785 133.797 44.9993 134.047 45.0189C134.354 45.0489 134.665 45.0642 134.975 45.0794C135.17 45.089 135.364 45.0986 135.557 45.1119L135.861 45.128C136.772 45.1765 137.69 45.2254 138.607 45.2782C144.187 45.523 149.627 45.4887 154.747 45.2489C159.867 45.0139 164.687 44.5881 169.037 44.0106C169.249 43.9838 169.462 43.9585 169.674 43.9332C170.005 43.8939 170.335 43.8546 170.657 43.8099C171.187 43.7316 171.707 43.6533 172.227 43.575C172.602 43.5181 172.974 43.4638 173.344 43.4099C173.992 43.3156 174.63 43.2227 175.247 43.1198C175.687 43.0445 176.12 42.9691 176.548 42.8946C177.065 42.8047 177.574 42.7161 178.077 42.6304C178.265 42.5957 178.454 42.5637 178.642 42.5316C178.907 42.4867 179.171 42.442 179.427 42.3906C179.609 42.3541 179.79 42.3177 179.968 42.2816C180.222 42.2304 180.471 42.1799 180.717 42.1311C181.386 41.9965 182.036 41.8678 182.667 41.7428C182.838 41.7089 183.009 41.6752 183.177 41.6417C183.654 41.5429 184.116 41.4387 184.568 41.3367C184.855 41.272 185.138 41.2082 185.417 41.1474C186.137 40.9858 186.817 40.8341 187.477 40.6873C187.846 40.5986 188.198 40.5098 188.54 40.4238C188.801 40.3579 189.056 40.2936 189.307 40.2321C189.566 40.1515 189.833 40.0698 190.106 39.9862C190.993 39.7142 191.949 39.4214 192.927 39.077C193.577 38.8568 194.257 38.6267 194.957 38.3918C194.996 38.3785 195.035 38.365 195.074 38.3514C195.209 38.3046 195.348 38.2562 195.487 38.2107C195.657 38.1471 195.837 38.0835 196.017 38.0198C196.377 37.8877 196.737 37.7555 197.107 37.6234C197.817 37.3675 198.55 37.1037 199.305 36.832C200.124 36.5373 200.969 36.2334 201.837 35.9201C202.756 35.5768 203.703 35.2243 204.674 34.8628ZM84.5074 18.741C84.4674 18.5256 84.2474 18.3445 83.8674 18.227C83.4874 18.1145 82.9474 18.0851 82.4274 18.1732C82.1674 18.2172 81.9474 18.2907 81.7674 18.369C81.5974 18.4522 81.4674 18.5501 81.3874 18.6529C81.2374 18.8584 81.2974 19.0738 81.5374 19.25C81.7774 19.4311 82.1374 19.5485 82.4874 19.6121C82.6674 19.6464 82.8374 19.666 83.0074 19.666C83.1774 19.6758 83.3374 19.6611 83.4974 19.6366C83.8074 19.5828 84.0474 19.4653 84.2374 19.3087C84.4074 19.1619 84.5374 18.9563 84.5074 18.741ZM78.6078 19.5495C79.1778 19.525 79.7078 19.618 80.1078 19.8186C80.5078 20.0193 80.7178 20.2787 80.7878 20.5137C80.8377 20.7584 80.7478 20.9884 80.4578 21.1842C80.1678 21.3751 79.7278 21.5072 79.2278 21.5562C78.7278 21.6051 78.1678 21.5806 77.6678 21.4436C77.1678 21.3066 76.8278 21.0814 76.7178 20.8171C76.5978 20.5528 76.7077 20.2494 77.0977 19.9949C77.4777 19.7355 78.0478 19.5788 78.6078 19.5495ZM76.8581 22.2063C76.1881 22.0497 75.4381 22.0448 74.7781 22.1818C74.1181 22.3189 73.5581 22.5929 73.2781 22.9551C72.7081 23.6893 73.4981 24.4577 74.9181 24.6731C76.3481 24.8884 77.8381 24.5213 78.3281 23.89C78.5781 23.5718 78.5281 23.2341 78.2681 22.9356C78.0081 22.637 77.5281 22.3678 76.8581 22.2063ZM71.9874 25.6772C72.6974 25.4717 73.5574 25.4129 74.3974 25.5304C75.2374 25.6528 75.8974 25.922 76.3174 26.2597C76.7374 26.5925 76.8674 26.9841 76.7074 27.3707C76.5174 27.7574 76.0574 28.0706 75.3874 28.286C74.7374 28.5013 73.9074 28.6188 73.0374 28.56C72.1674 28.5062 71.4374 28.2762 70.9574 27.9335C70.4974 27.5958 70.2874 27.1456 70.5074 26.6953C70.7074 26.245 71.2874 25.8877 71.9874 25.6772ZM74.0772 37.0757C74.8772 37.203 75.7472 37.1491 76.4972 36.9289C77.2472 36.7086 77.7372 36.3612 77.9972 35.9941C78.1172 35.813 78.1672 35.627 78.1572 35.441C78.1472 35.255 78.0472 35.0739 77.8972 34.9026C77.8072 34.8194 77.7072 34.7411 77.5972 34.6677C77.4872 34.5943 77.3672 34.5258 77.2272 34.467C77.0972 34.4034 76.9372 34.3495 76.7772 34.3006C76.6272 34.2517 76.4572 34.2076 76.2772 34.1733C75.9172 34.0999 75.5172 34.0559 75.1072 34.0412C74.6972 34.0314 74.2772 34.051 73.8572 34.1146C73.4372 34.1782 73.0672 34.281 72.7572 34.4181C72.4572 34.5551 72.2072 34.7264 72.0472 34.9173C71.9672 35.0103 71.8972 35.1131 71.8572 35.2207C71.8172 35.3235 71.7972 35.4312 71.8072 35.5438C71.8072 35.6563 71.8372 35.7689 71.8872 35.8815C71.9472 35.9941 72.0272 36.1066 72.1272 36.2143C72.3272 36.4345 72.6172 36.6157 72.9572 36.7625C73.2872 36.9093 73.6772 37.0121 74.0772 37.0757ZM80.7582 39.7823C79.6283 40.2571 77.8883 40.169 76.9183 39.5572C76.4483 39.2488 76.2583 38.8817 76.3683 38.5391C76.4683 38.1965 76.8583 37.8882 77.4782 37.6826C78.0983 37.477 78.8183 37.4134 79.4883 37.4624C80.1483 37.5113 80.7783 37.6728 81.1982 37.9469C82.0683 38.4951 81.8982 39.3125 80.7582 39.7823ZM81.7674 41.8723C82.5474 42.2883 83.8674 42.3128 84.6974 41.9311C85.5274 41.5493 85.5774 40.913 84.8274 40.5117C84.0674 40.1054 82.7774 40.0712 81.9174 40.4383C81.0574 40.8053 80.9874 41.4514 81.7674 41.8723ZM88.1475 43.713C87.5175 44.0116 86.5075 43.9969 85.8975 43.6886C85.2875 43.3753 85.3175 42.8859 85.9475 42.5873C86.5875 42.2937 87.5875 42.3034 88.1875 42.6118C88.8075 42.925 88.7775 43.4145 88.1475 43.713Z" fill="#365A97"/>
</g>
<defs>
<filter id="filter0_d_2684_7996" x="312" y="0" width="60.8984" height="64.0332" filterUnits="userSpaceOnUse" color-interpolation-filters="sRGB">
<feFlood flood-opacity="0" result="BackgroundImageFix"/>
<feColorMatrix in="SourceAlpha" type="matrix" values="0 0 0 0 0 0 0 0 0 0 0 0 0 0 0 0 0 0 127 0" result="hardAlpha"/>
<feOffset dy="4"/>
<feGaussianBlur stdDeviation="2"/>
<feComposite in2="hardAlpha" operator="out"/>
<feColorMatrix type="matrix" values="0 0 0 0 0 0 0 0 0 0 0 0 0 0 0 0 0 0 0.25 0"/>
<feBlend mode="normal" in2="BackgroundImageFix" result="effect1_dropShadow_2684_7996"/>
<feBlend mode="normal" in="SourceGraphic" in2="effect1_dropShadow_2684_7996" result="shape"/>
</filter>
<filter id="filter1_d_2684_7996" x="0" y="10" width="312.896" height="45" filterUnits="userSpaceOnUse" color-interpolation-filters="sRGB">
<feFlood flood-opacity="0" result="BackgroundImageFix"/>
<feColorMatrix in="SourceAlpha" type="matrix" values="0 0 0 0 0 0 0 0 0 0 0 0 0 0 0 0 0 0 127 0" result="hardAlpha"/>
<feOffset dy="4"/>
<feGaussianBlur stdDeviation="2"/>
<feComposite in2="hardAlpha" operator="out"/>
<feColorMatrix type="matrix" values="0 0 0 0 0 0 0 0 0 0 0 0 0 0 0 0 0 0 0.25 0"/>
<feBlend mode="normal" in2="BackgroundImageFix" result="effect1_dropShadow_2684_7996"/>
<feBlend mode="normal" in="SourceGraphic" in2="effect1_dropShadow_2684_7996" result="shape"/>
</filter>
</defs>
</svg>
