<?xml version="1.0" encoding="utf-8"?>
<!-- Generator: Adobe Illustrator 23.0.1, SVG Export Plug-In . SVG Version: 6.00 Build 0)  -->
<svg version="1.1" id="Layer_1" xmlns="http://www.w3.org/2000/svg" xmlns:xlink="http://www.w3.org/1999/xlink" x="0px" y="0px"
	 viewBox="0 0 512 512" style="enable-background:new 0 0 512 512;" xml:space="preserve">
<style type="text/css">
	.st0{fill:#1CB7EB;}
	.st1{fill:#FFFFFF;}
</style>
<circle class="st0" cx="256" cy="256" r="256"/>
<path class="st1" d="M392.53333,164.26666c-9.60001,5.33334-21.33331,8.53333-32,9.60001
	c11.73334-7.46667,20.26669-19.20001,24.53333-33.06668c-10.66666,6.40002-22.39996,11.73334-36.26666,14.93335
	C338.1333,144,324.26666,136.53333,308.26666,136.53333c-30.93335,0-56.53334,26.66666-56.53334,60.79999
	c0,4.26666,0,9.60001,1.06667,13.86667c-46.93332-2.13333-88.53333-26.66666-116.26666-62.93332
	c-5.33333,8.53333-7.46666,19.19998-7.46666,30.93332c0,21.33334,9.59999,39.46667,24.53334,50.13333
	c-9.60001,0-18.13333-3.20001-25.60001-7.46667v1.06665c0,28.80002,19.20001,53.33334,44.80002,59.73334
	c-4.26666,1.06668-9.60001,2.13336-14.93333,2.13336c-3.2,0-7.46666,0-10.66667-1.06668
	c7.46667,24.53333,27.73334,41.60001,52.26666,41.60001c-19.19998,16-43.73334,25.60001-69.33333,25.60001
	c-4.26666,0-8.53334,0-13.86667-1.06665c24.53334,17.06665,54.39999,27.73331,86.39999,27.73331
	c103.46669,0,160.00002-91.73334,160.00002-171.73334c0-2.13333,0-5.33331,0-7.46667
	C375.46667,187.73334,385.06665,177.06668,392.53333,164.26666z"/>
</svg>
