<?xml version="1.0" encoding="utf-8"?>
<!-- Generator: Adobe Illustrator 24.0.1, SVG Export Plug-In . SVG Version: 6.00 Build 0)  -->
<svg version="1.1" id="圖層_1" xmlns="http://www.w3.org/2000/svg" xmlns:xlink="http://www.w3.org/1999/xlink" x="0px" y="0px"
	 viewBox="0 0 512 512" style="enable-background:new 0 0 512 512;" xml:space="preserve">
<style type="text/css">
	.st0{fill:#FFFFFF;}
</style>
<path class="st0" d="M64,32C28.7,32,0,60.7,0,96v320c0,35.3,28.7,64,64,64h384c35.3,0,64-28.7,64-64V192c0-35.3-28.7-64-64-64H80
	c-8.8,0-16-7.2-16-16s7.2-16,16-16h368c17.7,0,32-14.3,32-32s-14.3-32-32-32H64z M416,336c-17.7,0-32-14.3-32-32s14.3-32,32-32
	s32,14.3,32,32S433.7,336,416,336z"/>
</svg>
