<?xml version="1.0" encoding="utf-8"?>
<!-- Generator: Adobe Illustrator 23.0.1, SVG Export Plug-In . SVG Version: 6.00 Build 0)  -->
<svg version="1.1" id="Layer_1" xmlns="http://www.w3.org/2000/svg" xmlns:xlink="http://www.w3.org/1999/xlink" x="0px" y="0px"
	 viewBox="0 0 512 512" style="enable-background:new 0 0 512 512;" xml:space="preserve">
<style type="text/css">
	.st0{fill:#FF0000;}
	.st1{fill:#FFFFFF;}
</style>
<path class="st0" d="M256,512L256,512c-141.36319,0-256-114.63678-256-256S114.63681,0.00002,256,0.00002S512,114.63683,512,256
	S397.36322,512,256,512z"/>
<path class="st1" d="M221.23521,306.53442V205.46561L310.0672,256L221.23521,306.53442z M418.91843,173.6192
	c-3.89117-14.74561-15.41119-26.31677-30.05441-30.25922c-26.52158-7.16797-132.81281-7.16797-132.81281-7.16797
	s-106.34239,0-132.81281,7.16797c-14.6432,3.94244-26.1632,15.51361-30.0544,30.25922C86.01601,200.29443,86.01601,256,86.01601,256
	s0,55.7056,7.1168,82.38083c3.8912,14.74561,15.4112,26.3168,30.0544,30.25919c26.5216,7.168,132.81281,7.168,132.81281,7.168
	s106.34244,0,132.81284-7.168c14.64319-3.94241,26.16318-15.51358,30.05441-30.25919
	C425.98401,311.7056,425.98401,256,425.98401,256S425.98401,200.29443,418.91843,173.6192z"/>
</svg>
