<?xml version="1.0" encoding="utf-8"?>
<!-- Generator: Adobe Illustrator 24.3.0, SVG Export Plug-In . SVG Version: 6.00 Build 0)  -->
<svg version="1.1" id="Layer_1" xmlns="http://www.w3.org/2000/svg" xmlns:xlink="http://www.w3.org/1999/xlink" x="0px" y="0px"
	 viewBox="0 0 297.64 94.52" style="enable-background:new 0 0 297.64 94.52;" xml:space="preserve">
<style type="text/css">
	.st0{fill:#009B56;}
	.st1{fill:#00A0E3;}
	.st2{fill:#ED3029;}
	.st3{fill:#FFFFFF;}
	.st4{font-family:'MyriadPro-Regular';}
	.st5{font-size:8.6858px;}
</style>
<g>
	<circle class="st1" cx="173.88" cy="6.82" r="6.82"/>
	<text transform="matrix(1 0 0 1 171.5658 9.7814)" class="st3 st4 st5">P</text>
	<circle class="st1" cx="173.88" cy="23" r="6.82"/>
	<text transform="matrix(1 0 0 1 171.5658 25.9557)" class="st3 st4 st5">P</text>
	<circle class="st2" cx="173.88" cy="39.17" r="6.82"/>
	<text transform="matrix(1 0 0 1 171.5223 42.1301)" class="st3 st4 st5">B</text>
	<circle class="st2" cx="173.88" cy="55.35" r="6.82"/>
	<text transform="matrix(1 0 0 1 171.5223 58.3049)" class="st3 st4 st5">B</text>
	<circle class="st1" cx="173.88" cy="71.52" r="6.82"/>
	<text transform="matrix(1 0 0 1 171.5658 74.4792)" class="st3 st4 st5">P</text>
	<circle class="st1" cx="173.88" cy="87.7" r="6.82"/>
	<text transform="matrix(1 0 0 1 171.5658 90.6535)" class="st3 st4 st5">P</text>
	<circle class="st1" cx="290.81" cy="6.82" r="6.82"/>
	<text transform="matrix(1 0 0 1 288.5023 9.7814)" class="st3 st4 st5">P</text>
	<circle class="st0" cx="290.81" cy="23" r="6.82"/>
	<text transform="matrix(1 0 0 1 288.6547 25.9557)" class="st3 st4 st5">T</text>
	<circle class="st0" cx="290.81" cy="39.17" r="6.82"/>
	<text transform="matrix(1 0 0 1 288.6547 42.1301)" class="st3 st4 st5">T</text>
	<circle class="st2" cx="290.81" cy="55.35" r="6.82"/>
	<text transform="matrix(1 0 0 1 288.4589 58.3049)" class="st3 st4 st5">B</text>
	<circle class="st2" cx="290.81" cy="71.52" r="6.82"/>
	<text transform="matrix(1 0 0 1 288.4589 74.4792)" class="st3 st4 st5">B</text>
	<circle class="st2" cx="274.11" cy="6.82" r="6.82"/>
	<text transform="matrix(1 0 0 1 271.7538 9.7814)" class="st3 st4 st5">B</text>
	<circle class="st1" cx="274.11" cy="23" r="6.82"/>
	<text transform="matrix(1 0 0 1 271.7972 25.9557)" class="st3 st4 st5">P</text>
	<circle class="st0" cx="274.11" cy="39.17" r="6.82"/>
	<text transform="matrix(1 0 0 1 271.9496 42.1301)" class="st3 st4 st5">T</text>
	<circle class="st1" cx="274.11" cy="55.35" r="6.82"/>
	<text transform="matrix(1 0 0 1 271.7972 58.3049)" class="st3 st4 st5">P</text>
	<circle class="st1" cx="274.11" cy="71.52" r="6.82"/>
	<text transform="matrix(1 0 0 1 271.7972 74.4792)" class="st3 st4 st5">P</text>
	<circle class="st1" cx="274.11" cy="87.7" r="6.82"/>
	<text transform="matrix(1 0 0 1 271.7972 90.6535)" class="st3 st4 st5">P</text>
	<circle class="st1" cx="56.94" cy="6.82" r="6.82"/>
	<text transform="matrix(1 0 0 1 54.6293 9.7814)" class="st3 st4 st5">P</text>
	<circle class="st1" cx="56.94" cy="23" r="6.82"/>
	<text transform="matrix(1 0 0 1 54.6293 25.9557)" class="st3 st4 st5">P</text>
	<circle class="st2" cx="56.94" cy="39.17" r="6.82"/>
	<text transform="matrix(1 0 0 1 54.5858 42.1301)" class="st3 st4 st5">B</text>
	<circle class="st1" cx="56.94" cy="55.35" r="6.82"/>
	<text transform="matrix(1 0 0 1 54.6293 58.3049)" class="st3 st4 st5">P</text>
	<circle class="st2" cx="56.94" cy="71.52" r="6.82"/>
	<text transform="matrix(1 0 0 1 54.5858 74.4792)" class="st3 st4 st5">B</text>
	<circle class="st1" cx="56.94" cy="87.7" r="6.82"/>
	<text transform="matrix(1 0 0 1 54.6293 90.6535)" class="st3 st4 st5">P</text>
	<circle class="st0" cx="73.65" cy="6.82" r="6.82"/>
	<text transform="matrix(1 0 0 1 71.4867 9.7814)" class="st3 st4 st5">T</text>
	<circle class="st2" cx="73.65" cy="23" r="6.82"/>
	<text transform="matrix(1 0 0 1 71.2909 25.9557)" class="st3 st4 st5">B</text>
	<circle class="st2" cx="73.65" cy="39.17" r="6.82"/>
	<text transform="matrix(1 0 0 1 71.2909 42.1301)" class="st3 st4 st5">B</text>
	<circle class="st2" cx="73.65" cy="55.35" r="6.82"/>
	<text transform="matrix(1 0 0 1 71.2909 58.3049)" class="st3 st4 st5">B</text>
	<circle class="st1" cx="73.65" cy="71.52" r="6.82"/>
	<text transform="matrix(1 0 0 1 71.3344 74.4792)" class="st3 st4 st5">P</text>
	<circle class="st1" cx="73.65" cy="87.7" r="6.82"/>
	<text transform="matrix(1 0 0 1 71.3344 90.6535)" class="st3 st4 st5">P</text>
	<circle class="st2" cx="90.35" cy="6.82" r="6.82"/>
	<text transform="matrix(1 0 0 1 87.9965 9.7814)" class="st3 st4 st5">B</text>
	<circle class="st1" cx="90.35" cy="23" r="6.82"/>
	<text transform="matrix(1 0 0 1 88.0399 25.9557)" class="st3 st4 st5">P</text>
	<circle class="st2" cx="90.35" cy="39.17" r="6.82"/>
	<text transform="matrix(1 0 0 1 87.9965 42.1301)" class="st3 st4 st5">B</text>
	<circle class="st0" cx="90.35" cy="55.35" r="6.82"/>
	<text transform="matrix(1 0 0 1 88.1923 58.3049)" class="st3 st4 st5">T</text>
	<circle class="st1" cx="90.35" cy="71.52" r="6.82"/>
	<text transform="matrix(1 0 0 1 88.0399 74.4792)" class="st3 st4 st5">P</text>
	<circle class="st1" cx="90.35" cy="87.7" r="6.82"/>
	<text transform="matrix(1 0 0 1 88.0399 90.6535)" class="st3 st4 st5">P</text>
	<circle class="st2" cx="157.17" cy="6.82" r="6.82"/>
	<text transform="matrix(1 0 0 1 154.8173 9.7814)" class="st3 st4 st5">B</text>
	<circle class="st1" cx="157.17" cy="23" r="6.82"/>
	<text transform="matrix(1 0 0 1 154.8607 25.9557)" class="st3 st4 st5">P</text>
	<circle class="st1" cx="157.17" cy="39.17" r="6.82"/>
	<text transform="matrix(1 0 0 1 154.8607 42.1301)" class="st3 st4 st5">P</text>
	<circle class="st2" cx="157.17" cy="55.35" r="6.82"/>
	<text transform="matrix(1 0 0 1 154.8173 58.3049)" class="st3 st4 st5">B</text>
	<circle class="st2" cx="157.17" cy="71.52" r="6.82"/>
	<text transform="matrix(1 0 0 1 154.8173 74.4792)" class="st3 st4 st5">B</text>
	<circle class="st2" cx="157.17" cy="87.7" r="6.82"/>
	<text transform="matrix(1 0 0 1 154.8173 90.6535)" class="st3 st4 st5">B</text>
	<circle class="st2" cx="190.58" cy="6.82" r="6.82"/>
	<text transform="matrix(1 0 0 1 188.2279 9.7814)" class="st3 st4 st5">B</text>
	<circle class="st1" cx="190.58" cy="23" r="6.82"/>
	<text transform="matrix(1 0 0 1 188.2714 25.9557)" class="st3 st4 st5">P</text>
	<circle class="st2" cx="190.58" cy="39.17" r="6.82"/>
	<text transform="matrix(1 0 0 1 188.2279 42.1301)" class="st3 st4 st5">B</text>
	<circle class="st2" cx="190.58" cy="55.35" r="6.82"/>
	<text transform="matrix(1 0 0 1 188.2279 58.3049)" class="st3 st4 st5">B</text>
	<circle class="st1" cx="190.58" cy="71.52" r="6.82"/>
	<text transform="matrix(1 0 0 1 188.2714 74.4792)" class="st3 st4 st5">P</text>
	<circle class="st1" cx="190.58" cy="87.7" r="6.82"/>
	<text transform="matrix(1 0 0 1 188.2714 90.6535)" class="st3 st4 st5">P</text>
	<circle class="st0" cx="207.29" cy="6.82" r="6.82"/>
	<text transform="matrix(1 0 0 1 205.1293 9.7814)" class="st3 st4 st5">T</text>
	<circle class="st0" cx="207.29" cy="23" r="6.82"/>
	<text transform="matrix(1 0 0 1 205.1293 25.9557)" class="st3 st4 st5">T</text>
	<circle class="st0" cx="207.29" cy="39.17" r="6.82"/>
	<text transform="matrix(1 0 0 1 205.1293 42.1301)" class="st3 st4 st5">T</text>
	<circle class="st1" cx="207.29" cy="55.35" r="6.82"/>
	<text transform="matrix(1 0 0 1 204.9769 58.3049)" class="st3 st4 st5">P</text>
	<circle class="st1" cx="207.29" cy="71.52" r="6.82"/>
	<text transform="matrix(1 0 0 1 204.9769 74.4792)" class="st3 st4 st5">P</text>
	<circle class="st1" cx="207.29" cy="87.7" r="6.82"/>
	<text transform="matrix(1 0 0 1 204.9769 90.6535)" class="st3 st4 st5">P</text>
	<circle class="st1" cx="223.99" cy="6.82" r="6.82"/>
	<text transform="matrix(1 0 0 1 221.6815 9.7814)" class="st3 st4 st5">P</text>
	<circle class="st1" cx="223.99" cy="23" r="6.82"/>
	<text transform="matrix(1 0 0 1 221.6815 25.9557)" class="st3 st4 st5">P</text>
	<circle class="st1" cx="223.99" cy="39.17" r="6.82"/>
	<text transform="matrix(1 0 0 1 221.6815 42.1301)" class="st3 st4 st5">P</text>
	<circle class="st1" cx="223.99" cy="55.35" r="6.82"/>
	<text transform="matrix(1 0 0 1 221.6815 58.3049)" class="st3 st4 st5">P</text>
	<circle class="st1" cx="223.99" cy="71.52" r="6.82"/>
	<text transform="matrix(1 0 0 1 221.6815 74.4792)" class="st3 st4 st5">P</text>
	<circle class="st1" cx="223.99" cy="87.7" r="6.82"/>
	<text transform="matrix(1 0 0 1 221.6815 90.6535)" class="st3 st4 st5">P</text>
	<circle class="st2" cx="6.82" cy="6.82" r="6.82"/>
	<text transform="matrix(1 0 0 1 4.4706 9.7814)" class="st3 st4 st5">B</text>
	<circle class="st1" cx="6.82" cy="23" r="6.82"/>
	<text transform="matrix(1 0 0 1 4.514 25.9557)" class="st3 st4 st5">P</text>
	<circle class="st1" cx="6.82" cy="39.17" r="6.82"/>
	<text transform="matrix(1 0 0 1 4.514 42.1301)" class="st3 st4 st5">P</text>
	<circle class="st0" cx="6.82" cy="55.35" r="6.82"/>
	<text transform="matrix(1 0 0 1 4.6664 58.3049)" class="st3 st4 st5">T</text>
	<circle class="st0" cx="6.82" cy="71.52" r="6.82"/>
	<text transform="matrix(1 0 0 1 4.6664 74.4792)" class="st3 st4 st5">T</text>
	<circle class="st2" cx="6.82" cy="87.7" r="6.82"/>
	<text transform="matrix(1 0 0 1 4.4706 90.6535)" class="st3 st4 st5">B</text>
	<circle class="st0" cx="40.24" cy="6.82" r="6.82"/>
	<text transform="matrix(1 0 0 1 38.077 9.7814)" class="st3 st4 st5">T</text>
	<circle class="st2" cx="40.24" cy="23" r="6.82"/>
	<text transform="matrix(1 0 0 1 37.8812 25.9557)" class="st3 st4 st5">B</text>
	<circle class="st2" cx="40.24" cy="39.17" r="6.82"/>
	<text transform="matrix(1 0 0 1 37.8812 42.1301)" class="st3 st4 st5">B</text>
	<circle class="st2" cx="40.24" cy="55.35" r="6.82"/>
	<text transform="matrix(1 0 0 1 37.8812 58.3049)" class="st3 st4 st5">B</text>
	<circle class="st1" cx="40.24" cy="71.52" r="6.82"/>
	<text transform="matrix(1 0 0 1 37.9247 74.4792)" class="st3 st4 st5">P</text>
	<circle class="st1" cx="40.24" cy="87.7" r="6.82"/>
	<text transform="matrix(1 0 0 1 37.9247 90.6535)" class="st3 st4 st5">P</text>
	<circle class="st2" cx="23.53" cy="6.82" r="6.82"/>
	<text transform="matrix(1 0 0 1 21.1757 9.7814)" class="st3 st4 st5">B</text>
	<circle class="st1" cx="23.53" cy="23" r="6.82"/>
	<text transform="matrix(1 0 0 1 21.2191 25.9557)" class="st3 st4 st5">P</text>
	<circle class="st1" cx="23.53" cy="39.17" r="6.82"/>
	<text transform="matrix(1 0 0 1 21.2191 42.1301)" class="st3 st4 st5">P</text>
	<circle class="st2" cx="23.53" cy="55.35" r="6.82"/>
	<text transform="matrix(1 0 0 1 21.1757 58.3049)" class="st3 st4 st5">B</text>
	<circle class="st2" cx="23.53" cy="71.52" r="6.82"/>
	<text transform="matrix(1 0 0 1 21.1757 74.4792)" class="st3 st4 st5">B</text>
	<circle class="st2" cx="23.53" cy="87.7" r="6.82"/>
	<text transform="matrix(1 0 0 1 21.1757 90.6535)" class="st3 st4 st5">B</text>
	<g>
		<circle class="st0" cx="240.7" cy="6.82" r="6.82"/>
		<text transform="matrix(1 0 0 1 238.5389 9.7814)" class="st3 st4 st5">T</text>
	</g>
	<g>
		<circle class="st0" cx="240.7" cy="23" r="6.82"/>
		<text transform="matrix(1 0 0 1 238.5389 25.9557)" class="st3 st4 st5">T</text>
	</g>
	<g>
		<circle class="st0" cx="240.7" cy="39.17" r="6.82"/>
		<text transform="matrix(1 0 0 1 238.5389 42.1301)" class="st3 st4 st5">T</text>
	</g>
	<g>
		<circle class="st1" cx="240.7" cy="55.35" r="6.82"/>
		<text transform="matrix(1 0 0 1 238.3866 58.3049)" class="st3 st4 st5">P</text>
	</g>
	<g>
		<circle class="st1" cx="240.7" cy="71.52" r="6.82"/>
		<text transform="matrix(1 0 0 1 238.3866 74.4792)" class="st3 st4 st5">P</text>
	</g>
	<g>
		<circle class="st1" cx="240.7" cy="87.7" r="6.82"/>
		<text transform="matrix(1 0 0 1 238.3866 90.6535)" class="st3 st4 st5">P</text>
	</g>
	<g>
		<circle class="st2" cx="257.4" cy="6.82" r="6.82"/>
		<text transform="matrix(1 0 0 1 255.0482 9.7814)" class="st3 st4 st5">B</text>
	</g>
	<g>
		<circle class="st1" cx="257.4" cy="23" r="6.82"/>
		<text transform="matrix(1 0 0 1 255.0917 25.9557)" class="st3 st4 st5">P</text>
	</g>
	<g>
		<circle class="st1" cx="257.4" cy="39.17" r="6.82"/>
		<text transform="matrix(1 0 0 1 255.0917 42.1301)" class="st3 st4 st5">P</text>
	</g>
	<g>
		<circle class="st2" cx="257.4" cy="55.35" r="6.82"/>
		<text transform="matrix(1 0 0 1 255.0482 58.3049)" class="st3 st4 st5">B</text>
	</g>
	<g>
		<circle class="st2" cx="257.4" cy="71.52" r="6.82"/>
		<text transform="matrix(1 0 0 1 255.0482 74.4792)" class="st3 st4 st5">B</text>
	</g>
	<g>
		<circle class="st2" cx="257.4" cy="87.7" r="6.82"/>
		<text transform="matrix(1 0 0 1 255.0482 90.6535)" class="st3 st4 st5">B</text>
	</g>
	<circle class="st2" cx="107.06" cy="6.82" r="6.82"/>
	<text transform="matrix(1 0 0 1 104.7015 9.7814)" class="st3 st4 st5">B</text>
	<circle class="st1" cx="107.06" cy="23" r="6.82"/>
	<text transform="matrix(1 0 0 1 104.745 25.9557)" class="st3 st4 st5">P</text>
	<circle class="st1" cx="107.06" cy="39.17" r="6.82"/>
	<text transform="matrix(1 0 0 1 104.745 42.1301)" class="st3 st4 st5">P</text>
	<circle class="st2" cx="107.06" cy="55.35" r="6.82"/>
	<text transform="matrix(1 0 0 1 104.7015 58.3049)" class="st3 st4 st5">B</text>
	<circle class="st2" cx="107.06" cy="71.52" r="6.82"/>
	<text transform="matrix(1 0 0 1 104.7015 74.4792)" class="st3 st4 st5">B</text>
	<circle class="st2" cx="107.06" cy="87.7" r="6.82"/>
	<text transform="matrix(1 0 0 1 104.7015 90.6535)" class="st3 st4 st5">B</text>
	<circle class="st2" cx="123.76" cy="6.82" r="6.82"/>
	<text transform="matrix(1 0 0 1 121.4071 9.7814)" class="st3 st4 st5">B</text>
	<circle class="st1" cx="123.76" cy="23" r="6.82"/>
	<text transform="matrix(1 0 0 1 121.4506 25.9557)" class="st3 st4 st5">P</text>
	<circle class="st1" cx="123.76" cy="39.17" r="6.82"/>
	<text transform="matrix(1 0 0 1 121.4506 42.1301)" class="st3 st4 st5">P</text>
	<circle class="st2" cx="123.76" cy="55.35" r="6.82"/>
	<text transform="matrix(1 0 0 1 121.4071 58.3049)" class="st3 st4 st5">B</text>
	<circle class="st0" cx="123.76" cy="71.52" r="6.82"/>
	<text transform="matrix(1 0 0 1 121.6029 74.4792)" class="st3 st4 st5">T</text>
	<circle class="st0" cx="123.76" cy="87.7" r="6.82"/>
	<text transform="matrix(1 0 0 1 121.6029 90.6535)" class="st3 st4 st5">T</text>
	<g>
		<circle class="st2" cx="140.47" cy="6.82" r="6.82"/>
		<text transform="matrix(1 0 0 1 138.1117 9.7814)" class="st3 st4 st5">B</text>
	</g>
	<g>
		<circle class="st1" cx="140.47" cy="23" r="6.82"/>
		<text transform="matrix(1 0 0 1 138.1552 25.9557)" class="st3 st4 st5">P</text>
	</g>
	<g>
		<circle class="st1" cx="140.47" cy="39.17" r="6.82"/>
		<text transform="matrix(1 0 0 1 138.1552 42.1301)" class="st3 st4 st5">P</text>
	</g>
	<g>
		<circle class="st2" cx="140.47" cy="55.35" r="6.82"/>
		<text transform="matrix(1 0 0 1 138.1117 58.3049)" class="st3 st4 st5">B</text>
	</g>
	<g>
		<circle class="st2" cx="140.47" cy="71.52" r="6.82"/>
		<text transform="matrix(1 0 0 1 138.1117 74.4792)" class="st3 st4 st5">B</text>
	</g>
	<g>
		<circle class="st2" cx="140.47" cy="87.7" r="6.82"/>
		<text transform="matrix(1 0 0 1 138.1117 90.6535)" class="st3 st4 st5">B</text>
	</g>
</g>
</svg>
