<?xml version="1.0" encoding="utf-8"?>
<!-- Generator: Adobe Illustrator 24.3.0, SVG Export Plug-In . SVG Version: 6.00 Build 0)  -->
<svg version="1.1" id="Layer_1" xmlns="http://www.w3.org/2000/svg" xmlns:xlink="http://www.w3.org/1999/xlink" x="0px" y="0px"
	 viewBox="0 0 297.64 46" style="enable-background:new 0 0 297.64 46;" xml:space="preserve">
<style type="text/css">
	.st0{fill:#D0D2D3;}
	.st1{fill:#2FADE3;}
	.st2{fill:#EE4543;}
	.st3{fill:#009B56;}
	.st4{fill:#231F20;}
	.st5{font-family:'MyriadPro-Regular';}
	.st6{font-size:8.6858px;}
	.st7{fill:#FFFFFF;}
</style>
<g>
	<circle class="st0" cx="207.29" cy="39.17" r="6.82"/>
	<text transform="matrix(1 0 0 1 203.0487 42.13)" class="st4 st5 st6">11</text>
	<circle class="st0" cx="157.17" cy="39.17" r="6.82"/>
	<text transform="matrix(1 0 0 1 154.9433 42.13)" class="st4 st5 st6">7</text>
	<circle class="st0" cx="190.58" cy="39.17" r="6.82"/>
	<text transform="matrix(1 0 0 1 188.3534 42.13)" class="st4 st5 st6">5</text>
	<circle class="st0" cx="173.88" cy="39.17" r="6.82"/>
	<text transform="matrix(1 0 0 1 171.6488 42.13)" class="st4 st5 st6">4</text>
	<circle class="st2" cx="207.29" cy="6.82" r="6.82"/>
	<circle class="st2" cx="207.29" cy="23" r="6.82"/>
	<circle class="st1" cx="157.17" cy="6.82" r="6.82"/>
	<text transform="matrix(1 0 0 1 155.0302 9.7813)" class="st7 st5 st6">S</text>
	<circle class="st1" cx="157.17" cy="23" r="6.82"/>
	<text transform="matrix(1 0 0 1 154.1791 25.9561)" class="st7 st5 st6">O</text>
	<circle class="st2" cx="190.58" cy="6.82" r="6.82"/>
	<text transform="matrix(1 0 0 1 188.2274 9.7813)" class="st7 st5 st6">B</text>
	<circle class="st1" cx="190.58" cy="23" r="6.82"/>
	<text transform="matrix(1 0 0 1 187.5893 25.9561)" class="st7 st5 st6">O</text>
	<circle class="st1" cx="173.88" cy="6.82" r="6.82"/>
	<text transform="matrix(1 0 0 1 171.7357 9.7813)" class="st7 st5 st6">S</text>
	<circle class="st1" cx="173.88" cy="23" r="6.82"/>
	<text transform="matrix(1 0 0 1 170.8847 25.9561)" class="st7 st5 st6">O</text>
	<text transform="matrix(1 0 0 1 204.933 9.7813)" class="st7 st5 st6">B</text>
	<text transform="matrix(1 0 0 1 205.1503 25.9561)" class="st7 st5 st6">E</text>
	<circle class="st0" cx="290.81" cy="39.17" r="6.82"/>
	<g>
		<text transform="matrix(1 0 0 1 288.5858 42.13)" class="st4 st5 st6">8</text>
	</g>
	<circle class="st0" cx="274.11" cy="39.17" r="6.82"/>
	<text transform="matrix(1 0 0 1 271.8798 42.13)" class="st4 st5 st6">5</text>
	<circle class="st1" cx="290.81" cy="6.82" r="6.82"/>
	<text transform="matrix(1 0 0 1 288.6728 9.7813)" class="st7 st5 st6">S</text>
	<circle class="st1" cx="290.81" cy="23" r="6.82"/>
	<text transform="matrix(1 0 0 1 287.8212 25.9561)" class="st7 st5 st6">O</text>
	<circle class="st0" cx="225.68" cy="39.17" r="6.82"/>
	<text transform="matrix(1 0 0 1 223.4477 42.13)" class="st4 st5 st6">9</text>
	<circle class="st0" cx="242.38" cy="39.17" r="6.82"/>
	<text transform="matrix(1 0 0 1 238.1425 42.13)" class="st4 st5 st6">10</text>
	<circle class="st0" cx="259.09" cy="39.17" r="6.82"/>
	<text transform="matrix(1 0 0 1 254.8481 42.13)" class="st4 st5 st6">18</text>
	<circle class="st1" cx="225.68" cy="6.82" r="6.82"/>
	<text transform="matrix(1 0 0 1 223.5346 9.7813)" class="st7 st5 st6">S</text>
	<circle class="st2" cx="225.68" cy="23" r="6.82"/>
	<text transform="matrix(1 0 0 1 223.539 25.9561)" class="st7 st5 st6">E</text>
	<circle class="st1" cx="242.38" cy="6.82" r="6.82"/>
	<text transform="matrix(1 0 0 1 240.2397 9.7813)" class="st7 st5 st6">S</text>
	<circle class="st2" cx="242.38" cy="23" r="6.82"/>
	<text transform="matrix(1 0 0 1 240.244 25.9561)" class="st7 st5 st6">E</text>
	<circle class="st2" cx="259.09" cy="6.82" r="6.82"/>
	<text transform="matrix(1 0 0 1 256.7323 9.7813)" class="st7 st5 st6">B</text>
	<circle class="st1" cx="259.09" cy="23" r="6.82"/>
	<text transform="matrix(1 0 0 1 256.0941 25.9561)" class="st7 st5 st6">O</text>
	<circle class="st2" cx="274.11" cy="6.82" r="6.82"/>
	<text transform="matrix(1 0 0 1 271.7538 9.7813)" class="st7 st5 st6">B</text>
	<circle class="st1" cx="274.11" cy="23" r="6.82"/>
	<text transform="matrix(1 0 0 1 271.1156 25.9561)" class="st7 st5 st6">O</text>
	<circle class="st0" cx="56.94" cy="39.17" r="6.82"/>
	<circle class="st0" cx="73.65" cy="39.17" r="6.82"/>
	<text transform="matrix(1 0 0 1 69.4071 42.13)" class="st4 st5 st6">12</text>
	<circle class="st0" cx="90.35" cy="39.17" r="6.82"/>
	<text transform="matrix(1 0 0 1 88.1225 42.13)" class="st4 st5 st6">7</text>
	<circle class="st2" cx="56.94" cy="6.82" r="6.82"/>
	<circle class="st1" cx="56.94" cy="23" r="6.82"/>
	<circle class="st1" cx="73.65" cy="6.82" r="6.82"/>
	<text transform="matrix(1 0 0 1 71.5043 9.7813)" class="st7 st5 st6">S</text>
	<circle class="st2" cx="73.65" cy="23" r="6.82"/>
	<text transform="matrix(1 0 0 1 71.5087 25.9561)" class="st7 st5 st6">E</text>
	<circle class="st1" cx="90.35" cy="6.82" r="6.82"/>
	<text transform="matrix(1 0 0 1 88.2094 9.7813)" class="st7 st5 st6">S</text>
	<circle class="st1" cx="90.35" cy="23" r="6.82"/>
	<text transform="matrix(1 0 0 1 87.3583 25.9561)" class="st7 st5 st6">O</text>
	<g>
		<text transform="matrix(1 0 0 1 54.7123 42.13)" class="st4 st5 st6">9</text>
	</g>
	<text transform="matrix(1 0 0 1 54.5863 9.7813)" class="st7 st5 st6">B</text>
	<text transform="matrix(1 0 0 1 53.9482 25.9561)" class="st7 st5 st6">O</text>
	<circle class="st0" cx="6.82" cy="39.17" r="6.82"/>
	<text transform="matrix(1 0 0 1 2.5863 42.13)" class="st4 st5 st6">11</text>
	<circle class="st0" cx="23.53" cy="39.17" r="6.82"/>
	<text transform="matrix(1 0 0 1 19.2914 42.13)" class="st4 st5 st6">12</text>
	<circle class="st0" cx="40.24" cy="39.17" r="6.82"/>
	<text transform="matrix(1 0 0 1 38.0067 42.13)" class="st4 st5 st6">4</text>
	<circle class="st2" cx="6.82" cy="6.82" r="6.82"/>
	<text transform="matrix(1 0 0 1 4.4706 9.7813)" class="st7 st5 st6">B</text>
	<circle class="st2" cx="6.82" cy="23" r="6.82"/>
	<text transform="matrix(1 0 0 1 4.6879 25.9561)" class="st7 st5 st6">E</text>
	<circle class="st2" cx="23.53" cy="6.82" r="6.82"/>
	<text transform="matrix(1 0 0 1 21.1757 9.7813)" class="st7 st5 st6">B</text>
	<circle class="st2" cx="23.53" cy="23" r="6.82"/>
	<text transform="matrix(1 0 0 1 21.393 25.9561)" class="st7 st5 st6">E</text>
	<circle class="st2" cx="40.24" cy="6.82" r="6.82"/>
	<text transform="matrix(1 0 0 1 37.8808 9.7813)" class="st7 st5 st6">B</text>
	<circle class="st2" cx="40.24" cy="23" r="6.82"/>
	<text transform="matrix(1 0 0 1 38.0981 25.9561)" class="st7 st5 st6">E</text>
	<circle class="st0" cx="123.76" cy="39.17" r="6.82"/>
	<text transform="matrix(1 0 0 1 121.5331 42.13)" class="st4 st5 st6">7</text>
	<circle class="st0" cx="140.47" cy="39.17" r="6.82"/>
	<text transform="matrix(1 0 0 1 136.2279 42.13)" class="st4 st5 st6">17</text>
	<circle class="st0" cx="107.06" cy="39.17" r="6.82"/>
	<text transform="matrix(1 0 0 1 104.828 42.13)" class="st4 st5 st6">8</text>
	<circle class="st1" cx="123.76" cy="6.82" r="6.82"/>
	<text transform="matrix(1 0 0 1 121.62 9.7813)" class="st7 st5 st6">S</text>
	<circle class="st1" cx="123.76" cy="23" r="6.82"/>
	<text transform="matrix(1 0 0 1 120.769 25.9561)" class="st7 st5 st6">O</text>
	<circle class="st2" cx="140.47" cy="6.82" r="6.82"/>
	<text transform="matrix(1 0 0 1 138.1122 9.7813)" class="st7 st5 st6">B</text>
	<circle class="st2" cx="140.47" cy="23" r="6.82"/>
	<text transform="matrix(1 0 0 1 138.3295 25.9561)" class="st7 st5 st6">E</text>
	<circle class="st1" cx="107.06" cy="6.82" r="6.82"/>
	<text transform="matrix(1 0 0 1 104.915 9.7813)" class="st7 st5 st6">S</text>
	<circle class="st2" cx="107.06" cy="23" r="6.82"/>
	<text transform="matrix(1 0 0 1 104.9193 25.9561)" class="st7 st5 st6">E</text>
</g>
</svg>
