<?xml version="1.0" encoding="utf-8"?>
<!-- Generator: Adobe Illustrator 24.3.0, SVG Export Plug-In . SVG Version: 6.00 Build 0)  -->
<svg version="1.1" id="Layer_1" xmlns="http://www.w3.org/2000/svg" xmlns:xlink="http://www.w3.org/1999/xlink" x="0px" y="0px"
	 viewBox="0 0 297.64 94.52" style="enable-background:new 0 0 297.64 94.52;" xml:space="preserve">
<style type="text/css">
	.st0{fill:#009B56;}
	.st1{fill:#00A0E3;}
	.st2{fill:#ED3029;}
	.st3{fill:#FFFFFF;}
	.st4{font-family:'MyriadPro-Regular';}
	.st5{font-size:8.6858px;}
</style>
<g>
	<g>
		<g>
			<circle class="st0" cx="6.82" cy="6.82" r="6.82"/>
			<text transform="matrix(1 0 0 1 4.6664 9.7817)" class="st3 st4 st5">T</text>
		</g>
		<g>
			<circle class="st0" cx="6.82" cy="23" r="6.82"/>
			<text transform="matrix(1 0 0 1 4.6664 25.956)" class="st3 st4 st5">T</text>
		</g>
		<g>
			<circle class="st0" cx="6.82" cy="39.17" r="6.82"/>
			<text transform="matrix(1 0 0 1 4.6664 42.1303)" class="st3 st4 st5">T</text>
		</g>
		<g>
			<circle class="st1" cx="6.82" cy="55.35" r="6.82"/>
			<text transform="matrix(1 0 0 1 4.5141 58.3046)" class="st3 st4 st5">P</text>
		</g>
		<g>
			<circle class="st1" cx="6.82" cy="71.52" r="6.82"/>
			<text transform="matrix(1 0 0 1 4.5141 74.4789)" class="st3 st4 st5">P</text>
		</g>
		<g>
			<circle class="st1" cx="6.82" cy="87.7" r="6.82"/>
			<text transform="matrix(1 0 0 1 4.5141 90.6537)" class="st3 st4 st5">P</text>
		</g>
	</g>
	<g>
		<g>
			<circle class="st2" cx="23.53" cy="6.82" r="6.82"/>
			<text transform="matrix(1 0 0 1 21.1757 9.7817)" class="st3 st4 st5">B</text>
		</g>
		<g>
			<circle class="st1" cx="23.53" cy="23" r="6.82"/>
			<text transform="matrix(1 0 0 1 21.2191 25.956)" class="st3 st4 st5">P</text>
		</g>
		<g>
			<circle class="st1" cx="23.53" cy="39.17" r="6.82"/>
			<text transform="matrix(1 0 0 1 21.2191 42.1303)" class="st3 st4 st5">P</text>
		</g>
		<g>
			<circle class="st2" cx="23.53" cy="55.35" r="6.82"/>
			<text transform="matrix(1 0 0 1 21.1757 58.3046)" class="st3 st4 st5">B</text>
		</g>
		<g>
			<circle class="st2" cx="23.53" cy="71.52" r="6.82"/>
			<text transform="matrix(1 0 0 1 21.1757 74.4789)" class="st3 st4 st5">B</text>
		</g>
		<g>
			<circle class="st2" cx="23.53" cy="87.7" r="6.82"/>
			<text transform="matrix(1 0 0 1 21.1757 90.6537)" class="st3 st4 st5">B</text>
		</g>
	</g>
	<g>
		<g>
			<circle class="st1" cx="140.47" cy="6.82" r="6.82"/>
			<text transform="matrix(1 0 0 1 138.1557 9.7817)" class="st3 st4 st5">P</text>
		</g>
		<g>
			<circle class="st1" cx="140.47" cy="23" r="6.82"/>
			<text transform="matrix(1 0 0 1 138.1557 25.956)" class="st3 st4 st5">P</text>
		</g>
		<g>
			<circle class="st2" cx="140.47" cy="39.17" r="6.82"/>
			<text transform="matrix(1 0 0 1 138.1122 42.1303)" class="st3 st4 st5">B</text>
		</g>
		<g>
			<circle class="st1" cx="140.47" cy="55.35" r="6.82"/>
			<text transform="matrix(1 0 0 1 138.1557 58.3046)" class="st3 st4 st5">P</text>
		</g>
		<g>
			<circle class="st2" cx="140.47" cy="71.52" r="6.82"/>
			<text transform="matrix(1 0 0 1 138.1122 74.4789)" class="st3 st4 st5">B</text>
		</g>
		<g>
			<circle class="st1" cx="140.47" cy="87.7" r="6.82"/>
			<text transform="matrix(1 0 0 1 138.1557 90.6537)" class="st3 st4 st5">P</text>
		</g>
	</g>
	<g>
		<g>
			<circle class="st2" cx="56.94" cy="6.82" r="6.82"/>
			<text transform="matrix(1 0 0 1 54.5863 9.7817)" class="st3 st4 st5">B</text>
		</g>
		<g>
			<circle class="st1" cx="56.94" cy="23" r="6.82"/>
			<text transform="matrix(1 0 0 1 54.6298 25.956)" class="st3 st4 st5">P</text>
		</g>
		<g>
			<circle class="st1" cx="56.94" cy="39.17" r="6.82"/>
			<text transform="matrix(1 0 0 1 54.6298 42.1303)" class="st3 st4 st5">P</text>
		</g>
		<g>
			<circle class="st0" cx="56.94" cy="55.35" r="6.82"/>
			<text transform="matrix(1 0 0 1 54.7821 58.3046)" class="st3 st4 st5">T</text>
		</g>
		<g>
			<circle class="st0" cx="56.94" cy="71.52" r="6.82"/>
			<text transform="matrix(1 0 0 1 54.7821 74.4789)" class="st3 st4 st5">T</text>
		</g>
		<g>
			<circle class="st2" cx="56.94" cy="87.7" r="6.82"/>
			<text transform="matrix(1 0 0 1 54.5863 90.6537)" class="st3 st4 st5">B</text>
		</g>
	</g>
	<g>
		<g>
			<circle class="st0" cx="73.65" cy="6.82" r="6.82"/>
			<text transform="matrix(1 0 0 1 71.4872 9.7817)" class="st3 st4 st5">T</text>
		</g>
		<g>
			<circle class="st2" cx="73.65" cy="23" r="6.82"/>
			<text transform="matrix(1 0 0 1 71.2914 25.956)" class="st3 st4 st5">B</text>
		</g>
		<g>
			<circle class="st2" cx="73.65" cy="39.17" r="6.82"/>
			<text transform="matrix(1 0 0 1 71.2914 42.1303)" class="st3 st4 st5">B</text>
		</g>
		<g>
			<circle class="st2" cx="73.65" cy="55.35" r="6.82"/>
			<text transform="matrix(1 0 0 1 71.2914 58.3046)" class="st3 st4 st5">B</text>
		</g>
		<g>
			<circle class="st1" cx="73.65" cy="71.52" r="6.82"/>
			<text transform="matrix(1 0 0 1 71.3349 74.4789)" class="st3 st4 st5">P</text>
		</g>
		<g>
			<circle class="st1" cx="73.65" cy="87.7" r="6.82"/>
			<text transform="matrix(1 0 0 1 71.3349 90.6537)" class="st3 st4 st5">P</text>
		</g>
	</g>
	<g>
		<g>
			<circle class="st0" cx="40.24" cy="6.82" r="6.82"/>
			<text transform="matrix(1 0 0 1 38.0766 9.7817)" class="st3 st4 st5">T</text>
		</g>
		<g>
			<circle class="st2" cx="40.24" cy="23" r="6.82"/>
			<text transform="matrix(1 0 0 1 37.8808 25.956)" class="st3 st4 st5">B</text>
		</g>
		<g>
			<circle class="st2" cx="40.24" cy="39.17" r="6.82"/>
			<text transform="matrix(1 0 0 1 37.8808 42.1303)" class="st3 st4 st5">B</text>
		</g>
		<g>
			<circle class="st2" cx="40.24" cy="55.35" r="6.82"/>
			<text transform="matrix(1 0 0 1 37.8808 58.3046)" class="st3 st4 st5">B</text>
		</g>
		<g>
			<circle class="st1" cx="40.24" cy="71.52" r="6.82"/>
			<text transform="matrix(1 0 0 1 37.9242 74.4789)" class="st3 st4 st5">P</text>
		</g>
		<g>
			<circle class="st1" cx="40.24" cy="87.7" r="6.82"/>
			<text transform="matrix(1 0 0 1 37.9242 90.6537)" class="st3 st4 st5">P</text>
		</g>
	</g>
	<g>
		<g>
			<circle class="st0" cx="157.17" cy="6.82" r="6.82"/>
			<text transform="matrix(1 0 0 1 155.0131 9.7817)" class="st3 st4 st5">T</text>
		</g>
		<g>
			<circle class="st2" cx="157.17" cy="23" r="6.82"/>
			<text transform="matrix(1 0 0 1 154.8173 25.956)" class="st3 st4 st5">B</text>
		</g>
		<g>
			<circle class="st2" cx="157.17" cy="39.17" r="6.82"/>
			<text transform="matrix(1 0 0 1 154.8173 42.1303)" class="st3 st4 st5">B</text>
		</g>
		<g>
			<circle class="st2" cx="157.17" cy="55.35" r="6.82"/>
			<text transform="matrix(1 0 0 1 154.8173 58.3046)" class="st3 st4 st5">B</text>
		</g>
		<g>
			<circle class="st1" cx="157.17" cy="71.52" r="6.82"/>
			<text transform="matrix(1 0 0 1 154.8607 74.4789)" class="st3 st4 st5">P</text>
		</g>
		<g>
			<circle class="st1" cx="157.17" cy="87.7" r="6.82"/>
			<text transform="matrix(1 0 0 1 154.8607 90.6537)" class="st3 st4 st5">P</text>
		</g>
	</g>
	<g>
		<g>
			<circle class="st2" cx="107.06" cy="6.82" r="6.82"/>
			<text transform="matrix(1 0 0 1 104.7016 9.7817)" class="st3 st4 st5">B</text>
		</g>
		<g>
			<circle class="st1" cx="107.06" cy="23" r="6.82"/>
			<text transform="matrix(1 0 0 1 104.745 25.956)" class="st3 st4 st5">P</text>
		</g>
		<g>
			<circle class="st1" cx="107.06" cy="39.17" r="6.82"/>
			<text transform="matrix(1 0 0 1 104.745 42.1303)" class="st3 st4 st5">P</text>
		</g>
		<g>
			<circle class="st2" cx="107.06" cy="55.35" r="6.82"/>
			<text transform="matrix(1 0 0 1 104.7016 58.3046)" class="st3 st4 st5">B</text>
		</g>
		<g>
			<circle class="st2" cx="107.06" cy="71.52" r="6.82"/>
			<text transform="matrix(1 0 0 1 104.7016 74.4789)" class="st3 st4 st5">B</text>
		</g>
		<g>
			<circle class="st2" cx="107.06" cy="87.7" r="6.82"/>
			<text transform="matrix(1 0 0 1 104.7016 90.6537)" class="st3 st4 st5">B</text>
		</g>
	</g>
	<g>
		<g>
			<circle class="st2" cx="173.88" cy="6.82" r="6.82"/>
			<text transform="matrix(1 0 0 1 171.5224 9.7817)" class="st3 st4 st5">B</text>
		</g>
		<g>
			<circle class="st1" cx="173.88" cy="23" r="6.82"/>
			<text transform="matrix(1 0 0 1 171.5658 25.956)" class="st3 st4 st5">P</text>
		</g>
		<g>
			<circle class="st2" cx="173.88" cy="39.17" r="6.82"/>
			<text transform="matrix(1 0 0 1 171.5224 42.1303)" class="st3 st4 st5">B</text>
		</g>
		<g>
			<circle class="st2" cx="173.88" cy="55.35" r="6.82"/>
			<text transform="matrix(1 0 0 1 171.5224 58.3046)" class="st3 st4 st5">B</text>
		</g>
		<g>
			<circle class="st1" cx="173.88" cy="71.52" r="6.82"/>
			<text transform="matrix(1 0 0 1 171.5658 74.4789)" class="st3 st4 st5">P</text>
		</g>
		<g>
			<circle class="st1" cx="173.88" cy="87.7" r="6.82"/>
			<text transform="matrix(1 0 0 1 171.5658 90.6537)" class="st3 st4 st5">P</text>
		</g>
	</g>
	<g>
		<g>
			<circle class="st2" cx="223.99" cy="6.82" r="6.82"/>
			<text transform="matrix(1 0 0 1 221.6381 9.7817)" class="st3 st4 st5">B</text>
		</g>
		<g>
			<circle class="st0" cx="223.99" cy="23" r="6.82"/>
			<text transform="matrix(1 0 0 1 221.8339 25.956)" class="st3 st4 st5">T</text>
		</g>
		<g>
			<circle class="st1" cx="223.99" cy="39.17" r="6.82"/>
			<text transform="matrix(1 0 0 1 221.6815 42.1303)" class="st3 st4 st5">P</text>
		</g>
		<g>
			<circle class="st2" cx="223.99" cy="55.35" r="6.82"/>
			<text transform="matrix(1 0 0 1 221.6381 58.3046)" class="st3 st4 st5">B</text>
		</g>
		<g>
			<circle class="st2" cx="223.99" cy="71.52" r="6.82"/>
			<text transform="matrix(1 0 0 1 221.6381 74.4789)" class="st3 st4 st5">B</text>
		</g>
		<g>
			<circle class="st2" cx="223.99" cy="87.7" r="6.82"/>
			<text transform="matrix(1 0 0 1 221.6381 90.6537)" class="st3 st4 st5">B</text>
		</g>
	</g>
	<g>
		<g>
			<circle class="st2" cx="240.7" cy="6.82" r="6.82"/>
			<text transform="matrix(1 0 0 1 238.3432 9.7817)" class="st3 st4 st5">B</text>
		</g>
		<g>
			<circle class="st1" cx="240.7" cy="23" r="6.82"/>
			<text transform="matrix(1 0 0 1 238.3866 25.956)" class="st3 st4 st5">P</text>
		</g>
		<g>
			<circle class="st2" cx="240.7" cy="39.17" r="6.82"/>
			<text transform="matrix(1 0 0 1 238.3432 42.1303)" class="st3 st4 st5">B</text>
		</g>
		<g>
			<circle class="st0" cx="240.7" cy="55.35" r="6.82"/>
			<text transform="matrix(1 0 0 1 238.539 58.3046)" class="st3 st4 st5">T</text>
		</g>
		<g>
			<circle class="st1" cx="240.7" cy="71.52" r="6.82"/>
			<text transform="matrix(1 0 0 1 238.3866 74.4789)" class="st3 st4 st5">P</text>
		</g>
		<g>
			<circle class="st1" cx="240.7" cy="87.7" r="6.82"/>
			<text transform="matrix(1 0 0 1 238.3866 90.6537)" class="st3 st4 st5">P</text>
		</g>
	</g>
	<g>
		<g>
			<circle class="st2" cx="257.4" cy="6.82" r="6.82"/>
			<text transform="matrix(1 0 0 1 255.0482 9.7817)" class="st3 st4 st5">B</text>
		</g>
		<g>
			<circle class="st1" cx="257.4" cy="23" r="6.82"/>
			<text transform="matrix(1 0 0 1 255.0917 25.956)" class="st3 st4 st5">P</text>
		</g>
		<g>
			<circle class="st1" cx="257.4" cy="39.17" r="6.82"/>
			<text transform="matrix(1 0 0 1 255.0917 42.1303)" class="st3 st4 st5">P</text>
		</g>
		<g>
			<circle class="st2" cx="257.4" cy="55.35" r="6.82"/>
			<text transform="matrix(1 0 0 1 255.0482 58.3046)" class="st3 st4 st5">B</text>
		</g>
		<g>
			<circle class="st2" cx="257.4" cy="71.52" r="6.82"/>
			<text transform="matrix(1 0 0 1 255.0482 74.4789)" class="st3 st4 st5">B</text>
		</g>
		<g>
			<circle class="st2" cx="257.4" cy="87.7" r="6.82"/>
			<text transform="matrix(1 0 0 1 255.0482 90.6537)" class="st3 st4 st5">B</text>
		</g>
	</g>
	<g>
		<g>
			<circle class="st1" cx="123.76" cy="6.82" r="6.82"/>
			<text transform="matrix(1 0 0 1 121.4506 9.7817)" class="st3 st4 st5">P</text>
		</g>
		<g>
			<circle class="st1" cx="123.76" cy="23" r="6.82"/>
			<text transform="matrix(1 0 0 1 121.4506 25.956)" class="st3 st4 st5">P</text>
		</g>
		<g>
			<circle class="st2" cx="123.76" cy="39.17" r="6.82"/>
			<text transform="matrix(1 0 0 1 121.4071 42.1303)" class="st3 st4 st5">B</text>
		</g>
		<g>
			<circle class="st2" cx="123.76" cy="55.35" r="6.82"/>
			<text transform="matrix(1 0 0 1 121.4071 58.3046)" class="st3 st4 st5">B</text>
		</g>
		<g>
			<circle class="st1" cx="123.76" cy="71.52" r="6.82"/>
			<text transform="matrix(1 0 0 1 121.4506 74.4789)" class="st3 st4 st5">P</text>
		</g>
		<g>
			<circle class="st1" cx="123.76" cy="87.7" r="6.82"/>
			<text transform="matrix(1 0 0 1 121.4506 90.6537)" class="st3 st4 st5">P</text>
		</g>
	</g>
	<g>
		<g>
			<circle class="st1" cx="290.81" cy="6.82" r="6.82"/>
			<text transform="matrix(1 0 0 1 288.5023 9.7817)" class="st3 st4 st5">P</text>
		</g>
		<g>
			<circle class="st1" cx="290.81" cy="23" r="6.82"/>
			<text transform="matrix(1 0 0 1 288.5023 25.956)" class="st3 st4 st5">P</text>
		</g>
		<g>
			<circle class="st1" cx="290.81" cy="39.17" r="6.82"/>
			<text transform="matrix(1 0 0 1 288.5023 42.1303)" class="st3 st4 st5">P</text>
		</g>
		<g>
			<circle class="st2" cx="290.81" cy="55.35" r="6.82"/>
			<text transform="matrix(1 0 0 1 288.4589 58.3046)" class="st3 st4 st5">B</text>
		</g>
	</g>
	<g>
		<g>
			<circle class="st2" cx="274.11" cy="6.82" r="6.82"/>
			<text transform="matrix(1 0 0 1 271.7538 9.7817)" class="st3 st4 st5">B</text>
		</g>
		<g>
			<circle class="st1" cx="274.11" cy="23" r="6.82"/>
			<text transform="matrix(1 0 0 1 271.7973 25.956)" class="st3 st4 st5">P</text>
		</g>
		<g>
			<circle class="st0" cx="274.11" cy="39.17" r="6.82"/>
			<text transform="matrix(1 0 0 1 271.9496 42.1303)" class="st3 st4 st5">T</text>
		</g>
		<g>
			<circle class="st1" cx="274.11" cy="55.35" r="6.82"/>
			<text transform="matrix(1 0 0 1 271.7973 58.3046)" class="st3 st4 st5">P</text>
		</g>
		<g>
			<circle class="st1" cx="274.11" cy="71.52" r="6.82"/>
			<text transform="matrix(1 0 0 1 271.7973 74.4789)" class="st3 st4 st5">P</text>
		</g>
		<g>
			<circle class="st1" cx="274.11" cy="87.7" r="6.82"/>
			<text transform="matrix(1 0 0 1 271.7973 90.6537)" class="st3 st4 st5">P</text>
		</g>
	</g>
	<g>
		<g>
			<circle class="st2" cx="190.58" cy="6.82" r="6.82"/>
			<text transform="matrix(1 0 0 1 188.2274 9.7817)" class="st3 st4 st5">B</text>
		</g>
		<g>
			<circle class="st1" cx="190.58" cy="23" r="6.82"/>
			<text transform="matrix(1 0 0 1 188.2709 25.956)" class="st3 st4 st5">P</text>
		</g>
		<g>
			<circle class="st0" cx="190.58" cy="39.17" r="6.82"/>
			<text transform="matrix(1 0 0 1 188.4232 42.1303)" class="st3 st4 st5">T</text>
		</g>
		<g>
			<circle class="st1" cx="190.58" cy="55.35" r="6.82"/>
			<text transform="matrix(1 0 0 1 188.2709 58.3046)" class="st3 st4 st5">P</text>
		</g>
		<g>
			<circle class="st1" cx="190.58" cy="71.52" r="6.82"/>
			<text transform="matrix(1 0 0 1 188.2709 74.4789)" class="st3 st4 st5">P</text>
		</g>
		<g>
			<circle class="st1" cx="190.58" cy="87.7" r="6.82"/>
			<text transform="matrix(1 0 0 1 188.2709 90.6537)" class="st3 st4 st5">P</text>
		</g>
	</g>
	<g>
		<g>
			<circle class="st2" cx="207.29" cy="6.82" r="6.82"/>
			<text transform="matrix(1 0 0 1 204.933 9.7817)" class="st3 st4 st5">B</text>
		</g>
		<g>
			<circle class="st0" cx="207.29" cy="23" r="6.82"/>
			<text transform="matrix(1 0 0 1 205.1288 25.956)" class="st3 st4 st5">T</text>
		</g>
		<g>
			<circle class="st1" cx="207.29" cy="39.17" r="6.82"/>
			<text transform="matrix(1 0 0 1 204.9765 42.1303)" class="st3 st4 st5">P</text>
		</g>
		<g>
			<circle class="st2" cx="207.29" cy="55.35" r="6.82"/>
			<text transform="matrix(1 0 0 1 204.933 58.3046)" class="st3 st4 st5">B</text>
		</g>
		<g>
			<circle class="st0" cx="207.29" cy="71.52" r="6.82"/>
			<text transform="matrix(1 0 0 1 205.1288 74.4789)" class="st3 st4 st5">T</text>
		</g>
		<g>
			<circle class="st0" cx="207.29" cy="87.7" r="6.82"/>
			<text transform="matrix(1 0 0 1 205.1288 90.6537)" class="st3 st4 st5">T</text>
		</g>
	</g>
	<g>
		<g>
			<circle class="st0" cx="90.35" cy="6.82" r="6.82"/>
			<text transform="matrix(1 0 0 1 88.1923 9.7817)" class="st3 st4 st5">T</text>
		</g>
		<g>
			<circle class="st0" cx="90.35" cy="23" r="6.82"/>
			<text transform="matrix(1 0 0 1 88.1923 25.956)" class="st3 st4 st5">T</text>
		</g>
		<g>
			<circle class="st0" cx="90.35" cy="39.17" r="6.82"/>
			<text transform="matrix(1 0 0 1 88.1923 42.1303)" class="st3 st4 st5">T</text>
		</g>
		<g>
			<circle class="st1" cx="90.35" cy="55.35" r="6.82"/>
			<text transform="matrix(1 0 0 1 88.0399 58.3046)" class="st3 st4 st5">P</text>
		</g>
		<g>
			<circle class="st1" cx="90.35" cy="71.52" r="6.82"/>
			<text transform="matrix(1 0 0 1 88.0399 74.4789)" class="st3 st4 st5">P</text>
		</g>
		<g>
			<circle class="st1" cx="90.35" cy="87.7" r="6.82"/>
			<text transform="matrix(1 0 0 1 88.0399 90.6537)" class="st3 st4 st5">P</text>
		</g>
	</g>
</g>
</svg>
