<?xml version="1.0" encoding="utf-8"?>
<!-- Generator: Adobe Illustrator 24.3.0, SVG Export Plug-In . SVG Version: 6.00 Build 0)  -->
<svg version="1.1" id="Layer_1" xmlns="http://www.w3.org/2000/svg" xmlns:xlink="http://www.w3.org/1999/xlink" x="0px" y="0px"
	 viewBox="0 0 297.64 94.52" style="enable-background:new 0 0 297.64 94.52;" xml:space="preserve">
<style type="text/css">
	.st0{fill:#009B56;}
	.st1{fill:#F5B719;}
	.st2{fill:#ED3029;}
	.st3{fill:#FFFFFF;}
	.st4{font-family:'MyriadPro-Regular';}
	.st5{font-size:8.6858px;}
</style>
<g>
	<g>
		<g>
			<circle class="st1" cx="223.99" cy="6.82" r="6.82"/>
			<text transform="matrix(1 0 0 1 221.8339 9.7812)" class="st3 st4 st5">T</text>
		</g>
		<g>
			<circle class="st1" cx="223.99" cy="23" r="6.82"/>
			<text transform="matrix(1 0 0 1 221.8339 25.9557)" class="st3 st4 st5">T</text>
		</g>
		<g>
			<circle class="st2" cx="223.99" cy="39.17" r="6.82"/>
			<text transform="matrix(1 0 0 1 221.1 42.1301)" class="st3 st4 st5">D</text>
		</g>
		<g>
			<circle class="st1" cx="223.99" cy="55.35" r="6.82"/>
			<text transform="matrix(1 0 0 1 221.8339 58.3044)" class="st3 st4 st5">T</text>
		</g>
		<g>
			<circle class="st2" cx="223.99" cy="71.52" r="6.82"/>
			<text transform="matrix(1 0 0 1 221.1 74.4792)" class="st3 st4 st5">D</text>
		</g>
		<g>
			<circle class="st1" cx="223.99" cy="87.7" r="6.82"/>
			<text transform="matrix(1 0 0 1 221.8339 90.6535)" class="st3 st4 st5">T</text>
		</g>
	</g>
	<g>
		<g>
			<circle class="st2" cx="257.4" cy="6.82" r="6.82"/>
			<text transform="matrix(1 0 0 1 254.5107 9.7812)" class="st3 st4 st5">D</text>
		</g>
		<g>
			<circle class="st1" cx="257.4" cy="23" r="6.82"/>
			<text transform="matrix(1 0 0 1 255.2446 25.9557)" class="st3 st4 st5">T</text>
		</g>
		<g>
			<circle class="st1" cx="257.4" cy="39.17" r="6.82"/>
			<text transform="matrix(1 0 0 1 255.2446 42.1301)" class="st3 st4 st5">T</text>
		</g>
		<g>
			<circle class="st0" cx="257.4" cy="55.35" r="6.82"/>
			<text transform="matrix(1 0 0 1 255.2446 58.3044)" class="st3 st4 st5">T</text>
		</g>
		<g>
			<circle class="st0" cx="257.4" cy="71.52" r="6.82"/>
			<text transform="matrix(1 0 0 1 255.2446 74.4792)" class="st3 st4 st5">T</text>
		</g>
		<g>
			<circle class="st2" cx="257.4" cy="87.7" r="6.82"/>
			<text transform="matrix(1 0 0 1 254.5107 90.6535)" class="st3 st4 st5">D</text>
		</g>
	</g>
	<g>
		<g>
			<circle class="st0" cx="240.7" cy="6.82" r="6.82"/>
			<text transform="matrix(1 0 0 1 238.5395 9.7812)" class="st3 st4 st5">T</text>
		</g>
		<g>
			<circle class="st2" cx="240.7" cy="23" r="6.82"/>
			<text transform="matrix(1 0 0 1 237.8056 25.9557)" class="st3 st4 st5">D</text>
		</g>
		<g>
			<circle class="st2" cx="240.7" cy="39.17" r="6.82"/>
			<text transform="matrix(1 0 0 1 237.8056 42.1301)" class="st3 st4 st5">D</text>
		</g>
		<g>
			<circle class="st2" cx="240.7" cy="55.35" r="6.82"/>
			<text transform="matrix(1 0 0 1 237.8056 58.3044)" class="st3 st4 st5">D</text>
		</g>
		<g>
			<circle class="st1" cx="240.7" cy="71.52" r="6.82"/>
			<text transform="matrix(1 0 0 1 238.5395 74.4792)" class="st3 st4 st5">T</text>
		</g>
		<g>
			<circle class="st1" cx="240.7" cy="87.7" r="6.82"/>
			<text transform="matrix(1 0 0 1 238.5395 90.6535)" class="st3 st4 st5">T</text>
		</g>
	</g>
	<g>
		<g>
			<circle class="st2" cx="274.11" cy="6.82" r="6.82"/>
			<text transform="matrix(1 0 0 1 271.2158 9.7812)" class="st3 st4 st5">D</text>
		</g>
		<g>
			<circle class="st1" cx="274.11" cy="23" r="6.82"/>
			<text transform="matrix(1 0 0 1 271.9496 25.9557)" class="st3 st4 st5">T</text>
		</g>
		<g>
			<circle class="st1" cx="274.11" cy="39.17" r="6.82"/>
			<text transform="matrix(1 0 0 1 271.9496 42.1301)" class="st3 st4 st5">T</text>
		</g>
		<g>
			<circle class="st2" cx="274.11" cy="55.35" r="6.82"/>
			<text transform="matrix(1 0 0 1 271.2158 58.3044)" class="st3 st4 st5">D</text>
		</g>
		<g>
			<circle class="st2" cx="274.11" cy="71.52" r="6.82"/>
			<text transform="matrix(1 0 0 1 271.2158 74.4792)" class="st3 st4 st5">D</text>
		</g>
		<g>
			<circle class="st2" cx="274.11" cy="87.7" r="6.82"/>
			<text transform="matrix(1 0 0 1 271.2158 90.6535)" class="st3 st4 st5">D</text>
		</g>
	</g>
	<g>
		<g>
			<circle class="st2" cx="107.06" cy="6.82" r="6.82"/>
			<text transform="matrix(1 0 0 1 104.1635 9.7812)" class="st3 st4 st5">D</text>
		</g>
		<g>
			<circle class="st1" cx="107.06" cy="23" r="6.82"/>
			<text transform="matrix(1 0 0 1 104.8974 25.9557)" class="st3 st4 st5">T</text>
		</g>
		<g>
			<circle class="st2" cx="107.06" cy="39.17" r="6.82"/>
			<text transform="matrix(1 0 0 1 104.1635 42.1301)" class="st3 st4 st5">D</text>
		</g>
		<g>
			<circle class="st2" cx="107.06" cy="55.35" r="6.82"/>
			<text transform="matrix(1 0 0 1 104.1635 58.3044)" class="st3 st4 st5">D</text>
		</g>
		<g>
			<circle class="st1" cx="107.06" cy="71.52" r="6.82"/>
			<text transform="matrix(1 0 0 1 104.8974 74.4792)" class="st3 st4 st5">T</text>
		</g>
		<g>
			<circle class="st1" cx="107.06" cy="87.7" r="6.82"/>
			<text transform="matrix(1 0 0 1 104.8974 90.6535)" class="st3 st4 st5">T</text>
		</g>
	</g>
	<g>
		<g>
			<circle class="st2" cx="90.35" cy="6.82" r="6.82"/>
			<text transform="matrix(1 0 0 1 87.4584 9.7812)" class="st3 st4 st5">D</text>
		</g>
		<g>
			<circle class="st1" cx="90.35" cy="23" r="6.82"/>
			<text transform="matrix(1 0 0 1 88.1923 25.9557)" class="st3 st4 st5">T</text>
		</g>
		<g>
			<circle class="st1" cx="90.35" cy="39.17" r="6.82"/>
			<text transform="matrix(1 0 0 1 88.1923 42.1301)" class="st3 st4 st5">T</text>
		</g>
		<g>
			<circle class="st2" cx="90.35" cy="55.35" r="6.82"/>
			<text transform="matrix(1 0 0 1 87.4584 58.3044)" class="st3 st4 st5">D</text>
		</g>
		<g>
			<circle class="st2" cx="90.35" cy="71.52" r="6.82"/>
			<text transform="matrix(1 0 0 1 87.4584 74.4792)" class="st3 st4 st5">D</text>
		</g>
		<g>
			<circle class="st2" cx="90.35" cy="87.7" r="6.82"/>
			<text transform="matrix(1 0 0 1 87.4584 90.6535)" class="st3 st4 st5">D</text>
		</g>
	</g>
	<g>
		<g>
			<circle class="st1" cx="290.81" cy="6.82" r="6.82"/>
			<text transform="matrix(1 0 0 1 288.6547 9.7812)" class="st3 st4 st5">T</text>
		</g>
		<g>
			<circle class="st0" cx="290.81" cy="23" r="6.82"/>
			<text transform="matrix(1 0 0 1 288.6547 25.9557)" class="st3 st4 st5">T</text>
		</g>
		<g>
			<circle class="st1" cx="290.81" cy="39.17" r="6.82"/>
			<text transform="matrix(1 0 0 1 288.6547 42.1301)" class="st3 st4 st5">T</text>
		</g>
		<g>
			<circle class="st2" cx="290.81" cy="55.35" r="6.82"/>
			<text transform="matrix(1 0 0 1 287.9208 58.3044)" class="st3 st4 st5">D</text>
		</g>
		<g>
			<circle class="st2" cx="290.81" cy="71.52" r="6.82"/>
			<text transform="matrix(1 0 0 1 287.9208 74.4792)" class="st3 st4 st5">D</text>
		</g>
	</g>
	<g>
		<g>
			<circle class="st2" cx="123.76" cy="6.82" r="6.82"/>
			<text transform="matrix(1 0 0 1 120.8691 9.7812)" class="st3 st4 st5">D</text>
		</g>
		<g>
			<circle class="st1" cx="123.76" cy="23" r="6.82"/>
			<text transform="matrix(1 0 0 1 121.603 25.9557)" class="st3 st4 st5">T</text>
		</g>
		<g>
			<circle class="st0" cx="123.76" cy="39.17" r="6.82"/>
			<text transform="matrix(1 0 0 1 121.603 42.1301)" class="st3 st4 st5">T</text>
		</g>
		<g>
			<circle class="st1" cx="123.76" cy="55.35" r="6.82"/>
			<text transform="matrix(1 0 0 1 121.603 58.3044)" class="st3 st4 st5">T</text>
		</g>
		<g>
			<circle class="st1" cx="123.76" cy="71.52" r="6.82"/>
			<text transform="matrix(1 0 0 1 121.603 74.4792)" class="st3 st4 st5">T</text>
		</g>
		<g>
			<circle class="st1" cx="123.76" cy="87.7" r="6.82"/>
			<text transform="matrix(1 0 0 1 121.603 90.6535)" class="st3 st4 st5">T</text>
		</g>
	</g>
	<g>
		<g>
			<circle class="st0" cx="190.58" cy="6.82" r="6.82"/>
			<text transform="matrix(1 0 0 1 188.4238 9.7812)" class="st3 st4 st5">T</text>
		</g>
		<g>
			<circle class="st0" cx="190.58" cy="23" r="6.82"/>
			<text transform="matrix(1 0 0 1 188.4238 25.9557)" class="st3 st4 st5">T</text>
		</g>
		<g>
			<circle class="st0" cx="190.58" cy="39.17" r="6.82"/>
			<text transform="matrix(1 0 0 1 188.4238 42.1301)" class="st3 st4 st5">T</text>
		</g>
		<g>
			<circle class="st1" cx="190.58" cy="55.35" r="6.82"/>
			<text transform="matrix(1 0 0 1 188.4238 58.3044)" class="st3 st4 st5">T</text>
		</g>
		<g>
			<circle class="st1" cx="190.58" cy="71.52" r="6.82"/>
			<text transform="matrix(1 0 0 1 188.4238 74.4792)" class="st3 st4 st5">T</text>
		</g>
		<g>
			<circle class="st1" cx="190.58" cy="87.7" r="6.82"/>
			<text transform="matrix(1 0 0 1 188.4238 90.6535)" class="st3 st4 st5">T</text>
		</g>
	</g>
	<g>
		<g>
			<circle class="st2" cx="140.47" cy="6.82" r="6.82"/>
			<text transform="matrix(1 0 0 1 137.5742 9.7812)" class="st3 st4 st5">D</text>
		</g>
		<g>
			<circle class="st1" cx="140.47" cy="23" r="6.82"/>
			<text transform="matrix(1 0 0 1 138.308 25.9557)" class="st3 st4 st5">T</text>
		</g>
		<g>
			<circle class="st1" cx="140.47" cy="39.17" r="6.82"/>
			<text transform="matrix(1 0 0 1 138.308 42.1301)" class="st3 st4 st5">T</text>
		</g>
		<g>
			<circle class="st2" cx="140.47" cy="55.35" r="6.82"/>
			<text transform="matrix(1 0 0 1 137.5742 58.3044)" class="st3 st4 st5">D</text>
		</g>
		<g>
			<circle class="st2" cx="140.47" cy="71.52" r="6.82"/>
			<text transform="matrix(1 0 0 1 137.5742 74.4792)" class="st3 st4 st5">D</text>
		</g>
		<g>
			<circle class="st2" cx="140.47" cy="87.7" r="6.82"/>
			<text transform="matrix(1 0 0 1 137.5742 90.6535)" class="st3 st4 st5">D</text>
		</g>
	</g>
	<g>
		<g>
			<circle class="st0" cx="207.29" cy="6.82" r="6.82"/>
			<text transform="matrix(1 0 0 1 205.1288 9.7812)" class="st3 st4 st5">T</text>
		</g>
		<g>
			<circle class="st2" cx="207.29" cy="23" r="6.82"/>
			<text transform="matrix(1 0 0 1 204.395 25.9557)" class="st3 st4 st5">D</text>
		</g>
		<g>
			<circle class="st2" cx="207.29" cy="39.17" r="6.82"/>
			<text transform="matrix(1 0 0 1 204.395 42.1301)" class="st3 st4 st5">D</text>
		</g>
		<g>
			<circle class="st2" cx="207.29" cy="55.35" r="6.82"/>
			<text transform="matrix(1 0 0 1 204.395 58.3044)" class="st3 st4 st5">D</text>
		</g>
		<g>
			<circle class="st1" cx="207.29" cy="71.52" r="6.82"/>
			<text transform="matrix(1 0 0 1 205.1288 74.4792)" class="st3 st4 st5">T</text>
		</g>
		<g>
			<circle class="st1" cx="207.29" cy="87.7" r="6.82"/>
			<text transform="matrix(1 0 0 1 205.1288 90.6535)" class="st3 st4 st5">T</text>
		</g>
	</g>
	<g>
		<g>
			<circle class="st2" cx="173.88" cy="6.82" r="6.82"/>
			<text transform="matrix(1 0 0 1 170.9843 9.7812)" class="st3 st4 st5">D</text>
		</g>
		<g>
			<circle class="st1" cx="173.88" cy="23" r="6.82"/>
			<text transform="matrix(1 0 0 1 171.7182 25.9557)" class="st3 st4 st5">T</text>
		</g>
		<g>
			<circle class="st1" cx="173.88" cy="39.17" r="6.82"/>
			<text transform="matrix(1 0 0 1 171.7182 42.1301)" class="st3 st4 st5">T</text>
		</g>
		<g>
			<circle class="st2" cx="173.88" cy="55.35" r="6.82"/>
			<text transform="matrix(1 0 0 1 170.9843 58.3044)" class="st3 st4 st5">D</text>
		</g>
		<g>
			<circle class="st2" cx="173.88" cy="71.52" r="6.82"/>
			<text transform="matrix(1 0 0 1 170.9843 74.4792)" class="st3 st4 st5">D</text>
		</g>
		<g>
			<circle class="st2" cx="173.88" cy="87.7" r="6.82"/>
			<text transform="matrix(1 0 0 1 170.9843 90.6535)" class="st3 st4 st5">D</text>
		</g>
	</g>
	<g>
		<g>
			<circle class="st2" cx="157.17" cy="6.82" r="6.82"/>
			<text transform="matrix(1 0 0 1 154.2797 9.7812)" class="st3 st4 st5">D</text>
		</g>
		<g>
			<circle class="st1" cx="157.17" cy="23" r="6.82"/>
			<text transform="matrix(1 0 0 1 155.0136 25.9557)" class="st3 st4 st5">T</text>
		</g>
		<g>
			<circle class="st2" cx="157.17" cy="39.17" r="6.82"/>
			<text transform="matrix(1 0 0 1 154.2797 42.1301)" class="st3 st4 st5">D</text>
		</g>
		<g>
			<circle class="st0" cx="157.17" cy="55.35" r="6.82"/>
			<text transform="matrix(1 0 0 1 155.0136 58.3044)" class="st3 st4 st5">T</text>
		</g>
		<g>
			<circle class="st1" cx="157.17" cy="71.52" r="6.82"/>
			<text transform="matrix(1 0 0 1 155.0136 74.4792)" class="st3 st4 st5">T</text>
		</g>
		<g>
			<circle class="st1" cx="157.17" cy="87.7" r="6.82"/>
			<text transform="matrix(1 0 0 1 155.0136 90.6535)" class="st3 st4 st5">T</text>
		</g>
	</g>
	<g>
		<g>
			<circle class="st1" cx="40.24" cy="6.82" r="6.82"/>
			<text transform="matrix(1 0 0 1 38.0766 9.7812)" class="st3 st4 st5">T</text>
		</g>
		<g>
			<circle class="st1" cx="40.24" cy="23" r="6.82"/>
			<text transform="matrix(1 0 0 1 38.0766 25.9557)" class="st3 st4 st5">T</text>
		</g>
		<g>
			<circle class="st2" cx="40.24" cy="39.17" r="6.82"/>
			<text transform="matrix(1 0 0 1 37.3427 42.1301)" class="st3 st4 st5">D</text>
		</g>
		<g>
			<circle class="st2" cx="40.24" cy="55.35" r="6.82"/>
			<text transform="matrix(1 0 0 1 37.3427 58.3044)" class="st3 st4 st5">D</text>
		</g>
		<g>
			<circle class="st1" cx="40.24" cy="71.52" r="6.82"/>
			<text transform="matrix(1 0 0 1 38.0766 74.4792)" class="st3 st4 st5">T</text>
		</g>
		<g>
			<circle class="st1" cx="40.24" cy="87.7" r="6.82"/>
			<text transform="matrix(1 0 0 1 38.0766 90.6535)" class="st3 st4 st5">T</text>
		</g>
	</g>
	<g>
		<g>
			<circle class="st2" cx="73.65" cy="6.82" r="6.82"/>
			<text transform="matrix(1 0 0 1 70.7529 9.7812)" class="st3 st4 st5">D</text>
		</g>
		<g>
			<circle class="st1" cx="73.65" cy="23" r="6.82"/>
			<text transform="matrix(1 0 0 1 71.4868 25.9557)" class="st3 st4 st5">T</text>
		</g>
		<g>
			<circle class="st1" cx="73.65" cy="39.17" r="6.82"/>
			<text transform="matrix(1 0 0 1 71.4868 42.1301)" class="st3 st4 st5">T</text>
		</g>
		<g>
			<circle class="st2" cx="73.65" cy="55.35" r="6.82"/>
			<text transform="matrix(1 0 0 1 70.7529 58.3044)" class="st3 st4 st5">D</text>
		</g>
		<g>
			<circle class="st0" cx="73.65" cy="71.52" r="6.82"/>
			<text transform="matrix(1 0 0 1 71.4868 74.4792)" class="st3 st4 st5">T</text>
		</g>
		<g>
			<circle class="st0" cx="73.65" cy="87.7" r="6.82"/>
			<text transform="matrix(1 0 0 1 71.4868 90.6535)" class="st3 st4 st5">T</text>
		</g>
	</g>
	<g>
		<g>
			<circle class="st0" cx="56.94" cy="6.82" r="6.82"/>
			<text transform="matrix(1 0 0 1 54.7817 9.7812)" class="st3 st4 st5">T</text>
		</g>
		<g>
			<circle class="st0" cx="56.94" cy="23" r="6.82"/>
			<text transform="matrix(1 0 0 1 54.7817 25.9557)" class="st3 st4 st5">T</text>
		</g>
		<g>
			<circle class="st0" cx="56.94" cy="39.17" r="6.82"/>
			<text transform="matrix(1 0 0 1 54.7817 42.1301)" class="st3 st4 st5">T</text>
		</g>
		<g>
			<circle class="st1" cx="56.94" cy="55.35" r="6.82"/>
			<text transform="matrix(1 0 0 1 54.7817 58.3044)" class="st3 st4 st5">T</text>
		</g>
		<g>
			<circle class="st1" cx="56.94" cy="71.52" r="6.82"/>
			<text transform="matrix(1 0 0 1 54.7817 74.4792)" class="st3 st4 st5">T</text>
		</g>
		<g>
			<circle class="st1" cx="56.94" cy="87.7" r="6.82"/>
			<text transform="matrix(1 0 0 1 54.7817 90.6535)" class="st3 st4 st5">T</text>
		</g>
	</g>
	<g>
		<g>
			<circle class="st2" cx="23.53" cy="6.82" r="6.82"/>
			<text transform="matrix(1 0 0 1 20.6376 9.7812)" class="st3 st4 st5">D</text>
		</g>
		<g>
			<circle class="st1" cx="23.53" cy="23" r="6.82"/>
			<text transform="matrix(1 0 0 1 21.3715 25.9557)" class="st3 st4 st5">T</text>
		</g>
		<g>
			<circle class="st1" cx="23.53" cy="39.17" r="6.82"/>
			<text transform="matrix(1 0 0 1 21.3715 42.1301)" class="st3 st4 st5">T</text>
		</g>
		<g>
			<circle class="st2" cx="23.53" cy="55.35" r="6.82"/>
			<text transform="matrix(1 0 0 1 20.6376 58.3044)" class="st3 st4 st5">D</text>
		</g>
		<g>
			<circle class="st2" cx="23.53" cy="71.52" r="6.82"/>
			<text transform="matrix(1 0 0 1 20.6376 74.4792)" class="st3 st4 st5">D</text>
		</g>
		<g>
			<circle class="st2" cx="23.53" cy="87.7" r="6.82"/>
			<text transform="matrix(1 0 0 1 20.6376 90.6535)" class="st3 st4 st5">D</text>
		</g>
	</g>
	<g>
		<g>
			<circle class="st1" cx="6.82" cy="6.82" r="6.82"/>
			<text transform="matrix(1 0 0 1 4.666 9.7812)" class="st3 st4 st5">T</text>
		</g>
		<g>
			<circle class="st1" cx="6.82" cy="23" r="6.82"/>
			<text transform="matrix(1 0 0 1 4.666 25.9557)" class="st3 st4 st5">T</text>
		</g>
		<g>
			<circle class="st1" cx="6.82" cy="39.17" r="6.82"/>
			<text transform="matrix(1 0 0 1 4.666 42.1301)" class="st3 st4 st5">T</text>
		</g>
		<g>
			<circle class="st1" cx="6.82" cy="55.35" r="6.82"/>
			<text transform="matrix(1 0 0 1 4.666 58.3044)" class="st3 st4 st5">T</text>
		</g>
		<g>
			<circle class="st1" cx="6.82" cy="71.52" r="6.82"/>
			<text transform="matrix(1 0 0 1 4.666 74.4792)" class="st3 st4 st5">T</text>
		</g>
		<g>
			<circle class="st1" cx="6.82" cy="87.7" r="6.82"/>
			<text transform="matrix(1 0 0 1 4.666 90.6535)" class="st3 st4 st5">T</text>
		</g>
	</g>
</g>
</svg>
